<?xml version="1.0" encoding="UTF-8"?>
<svg id="Worm" xmlns="http://www.w3.org/2000/svg" viewBox="0 0 150.37 128.67">
  <defs>
    <style>
      .cls-1 {
        fill: #d4cdcd;
      }

      .cls-2 {
        fill: #242222;
      }
    </style>
  </defs>
  <path class="cls-2" d="m72.74,124.67c-11.18,0-22.06-2.44-31.6-7.06-4.08,1.25-7.88,1.89-11.62,1.96h-.47c-5.2,0-10.12-1.64-14.22-4.74-6.42-4.86-10.46-13.3-10.81-22.58-.29-7.55,1.88-14.48,6.03-19.54-7.58-11.48-7.81-26.94-.21-38.02,6.26-9.34,15.94-14.87,26.68-15.27,1.5-5.03,6.16-8.56,11.54-8.56.72,0,1.44.07,2.15.2,1.33.25,2.61.72,3.77,1.4,6.27-5.41,14.29-8.45,22.52-8.45,2.03,0,4.08.19,6.08.56,16.47,3.05,28.3,18,28,34.41,17.57,2.04,30.21,12.43,35,28.97l.05.18c1.25,5.21,2.53,18.96-12.57,34.13l-.08.08c-7.96,7.55-17.78,12.87-29.2,15.82-1.69.79-3.42,1.5-5.15,2.1-8.27,2.94-16.98,4.43-25.88,4.43Z"/>
  <path class="cls-1" d="m76.5,8c1.77,0,3.56.16,5.36.49,15.84,2.93,26.74,18.32,24.42,34.15,16.08.65,30.29,8.52,35.46,26.4,2.71,11.25-3.79,22.61-11.52,30.38-7.89,7.48-17.52,12.34-27.81,14.94-1.68.8-3.38,1.5-5.1,2.1-7.83,2.78-16.21,4.21-24.57,4.21-10.83,0-21.65-2.4-31.26-7.36-.46.15-.92.29-1.38.44-3.48,1.08-6.99,1.76-10.65,1.83-.13,0-.26,0-.39,0-4.26,0-8.4-1.35-11.81-3.93-11.2-8.48-12.67-29.15-1.99-38.6-8.23-9.98-9.7-25.04-2.12-36.09,6.33-9.44,15.55-13.56,24.66-13.56.75,0,1.51.03,2.26.08-.06-.68-.03-1.38.1-2.08.7-3.81,4.14-6.54,7.9-6.54.47,0,.94.04,1.42.13,1.91.35,3.54,1.39,4.7,2.81,5.68-6.09,13.77-9.8,22.32-9.8M27.5,25.49c1.71-.67,3.48-1.2,5.29-1.56-1.78.34-3.63.81-5.29,1.56m-14.9,12.47c2.42-3.93,5.71-7.25,9.56-9.72-3.93,2.32-7.2,5.84-9.56,9.72M76.5,0c-8.32,0-16.45,2.78-23.1,7.79-.8-.29-1.62-.51-2.47-.67-.94-.17-1.91-.26-2.87-.26-6.17,0-11.63,3.5-14.31,8.76-10.97,1.18-20.74,7.18-27.24,16.85C1.91,39.2-.3,47.54.3,55.96c.41,5.81,2.13,11.51,4.95,16.54C1.6,78.02-.26,84.96.03,92.41c.4,10.47,5.04,20.04,12.4,25.61,4.8,3.63,10.55,5.55,16.63,5.55.18,0,.36,0,.55,0,3.65-.07,7.33-.63,11.21-1.7,9.73,4.45,20.7,6.79,31.93,6.79,9.34,0,18.5-1.57,27.22-4.66,1.74-.6,3.47-1.3,5.17-2.09,11.93-3.13,22.22-8.75,30.6-16.7l.08-.08.08-.08c11.64-11.69,16.61-25.5,13.63-37.89l-.04-.18-.05-.18c-4.95-17.1-17.49-28.21-34.95-31.33-1.31-16.89-13.97-31.69-31.17-34.87-2.24-.41-4.53-.62-6.81-.62h0Z"/>
</svg>