<?xml version="1.0" encoding="UTF-8"?>
<svg id="Worm" xmlns="http://www.w3.org/2000/svg" viewBox="0 0 77 74">
  <defs>
    <style>
      .cls-1 {
        fill: #ffd500;
      }
    </style>
  </defs>
  <path class="cls-1" d="m23.95,62.47c-4.34-1.12-6.95-5.88-5.76-10.15,2.04-8.75,4.56-17.38,6.95-26.04,1.86-6.8,2.93-16.87,12.57-14.68,3.84,1.03,6.68,5.08,5.98,9.08-1.28,5.18-2.73,10.32-4.17,15.46-1.29,4.56-2.57,9.12-3.74,13.7-1.27,6.14-2.62,12.87-9.39,12.87-.74,0-1.55-.08-2.44-.25Z"/>
  <path class="cls-1" d="m54.11,50.36c-10.32-2.73-5.9-18.85,4.32-15.93,9.74,2.53,6.91,16.29-1.81,16.29-.79,0-1.63-.11-2.51-.36Z"/>
</svg>