<?xml version="1.0" encoding="UTF-8"?>
<svg id="Worm" xmlns="http://www.w3.org/2000/svg" viewBox="0 0 77 74">
  <defs>
    <style>
      .cls-1 {
        fill: #fff;
      }

      .cls-2 {
        fill: #ffd500;
      }

      .cls-3 {
        fill: #2d2c2c;
      }
    </style>
  </defs>
  <g>
    <g>
      <path class="cls-1" d="m23.95,62.47c-4.34-1.12-6.95-5.88-5.76-10.15,2.04-8.75,4.56-17.38,6.95-26.04,1.86-6.8,2.93-16.87,12.57-14.68,3.84,1.03,6.68,5.08,5.98,9.08-1.28,5.18-2.73,10.32-4.17,15.46-1.29,4.56-2.57,9.12-3.74,13.7-1.27,6.14-2.62,12.87-9.39,12.87-.74,0-1.55-.08-2.44-.25Z"/>
      <path class="cls-1" d="m54.11,50.36c-10.32-2.73-5.9-18.85,4.32-15.93,9.74,2.53,6.91,16.29-1.81,16.29-.79,0-1.63-.11-2.51-.36Z"/>
    </g>
    <g>
      <path class="cls-2" d="m23.95,62.47c-4.34-1.12-6.95-5.88-5.76-10.15,2.04-8.75,4.56-17.38,6.95-26.04,1.86-6.8,2.93-16.87,12.57-14.68,3.84,1.03,6.68,5.08,5.98,9.08-1.28,5.18-2.73,10.32-4.17,15.46-1.29,4.56-2.57,9.12-3.74,13.7-1.27,6.14-2.62,12.87-9.39,12.87-.74,0-1.55-.08-2.44-.25Z"/>
      <path class="cls-2" d="m54.11,50.36c-10.32-2.73-5.9-18.85,4.32-15.93,9.74,2.53,6.91,16.29-1.81,16.29-.79,0-1.63-.11-2.51-.36Z"/>
    </g>
    <g>
      <path class="cls-3" d="m35.18,11.3c.77,0,1.6.1,2.52.3,3.84,1.03,6.68,5.08,5.98,9.08-1.28,5.18-2.73,10.32-4.17,15.46-1.29,4.56-2.57,9.12-3.74,13.7-1.27,6.14-2.62,12.87-9.39,12.87h0c-.74,0-1.55-.08-2.44-.25-4.34-1.12-6.95-5.88-5.76-10.15,2.04-8.75,4.56-17.38,6.95-26.04,1.68-6.16,2.72-14.99,10.05-14.99m0-8h0c-5.69,0-10.47,2.85-13.47,8.03-1.95,3.37-2.87,7.14-3.69,10.47-.21.85-.41,1.66-.6,2.38-.52,1.88-1.05,3.78-1.58,5.68-1.86,6.67-3.79,13.56-5.41,20.51-1.08,4.09-.47,8.56,1.69,12.3,2.19,3.8,5.69,6.48,9.83,7.55l.23.06.23.05c1.37.27,2.7.4,3.97.4,5.92,0,10.8-2.92,13.73-8.22,1.92-3.46,2.74-7.39,3.45-10.85,1.11-4.35,2.31-8.61,3.64-13.33l.36-1.29c1.31-4.7,2.67-9.56,3.88-14.44l.06-.26.05-.27c1.39-7.92-3.9-16.08-11.79-18.19l-.15-.04-.15-.03c-1.47-.33-2.91-.5-4.29-.5h0Z"/>
      <path class="cls-3" d="m56.03,34.08c.76,0,1.56.11,2.41.35,9.74,2.53,6.91,16.29-1.81,16.29h0c-.79,0-1.63-.11-2.51-.36-9.47-2.51-6.53-16.28,1.92-16.28m0-8h0c-7.98,0-14.57,6.08-15.65,14.46-1.07,8.21,3.72,15.42,11.64,17.54,1.54.42,3.09.64,4.61.64,8.09,0,14.73-6.07,15.8-14.42,1.05-8.23-3.83-15.45-11.88-17.58-1.5-.42-3.02-.63-4.51-.63h0Z"/>
    </g>
  </g>
  <g>
    <path class="cls-2" d="m23.95,62.47c-4.34-1.12-6.95-5.88-5.76-10.15,2.04-8.75,4.56-17.38,6.95-26.04,1.86-6.8,2.93-16.87,12.57-14.68,3.84,1.03,6.68,5.08,5.98,9.08-1.28,5.18-2.73,10.32-4.17,15.46-1.29,4.56-2.57,9.12-3.74,13.7-1.27,6.14-2.62,12.87-9.39,12.87-.74,0-1.55-.08-2.44-.25Z"/>
    <path class="cls-2" d="m54.11,50.36c-10.32-2.73-5.9-18.85,4.32-15.93,9.74,2.53,6.91,16.29-1.81,16.29-.79,0-1.63-.11-2.51-.36Z"/>
  </g>
</svg>