<?xml version="1.0" encoding="UTF-8"?>
<svg id="Worm" xmlns="http://www.w3.org/2000/svg" viewBox="0 0 77 74">
  <defs>
    <style>
      .cls-1 {
        fill: #00b6ff;
      }
    </style>
  </defs>
  <path class="cls-1" d="m37.06,23.13c0-6.4,5.35-11.75,11.75-11.75s11.75,5.35,11.75,11.75-5.35,11.75-11.75,11.75-11.75-5.35-11.75-11.75Z"/>
  <path class="cls-1" d="m18.73,62.91c-.4-.3-.74-.7-.99-1.24-.29-.28-.49-.66-.57-1.09,0-.04-.01-.07-.02-.11-.01-.07-.02-.13-.03-.22-.36-4-.22-8.04.21-12.03s.9-7.76,1.97-11.44c.36-1.23.61-2.82,1.62-3.72,1.51-1.35,3.21.67,4.36,1.63,4.55,3.78,8.83,8.14,13.24,12.09,7.53,6.74,7.68,6.85,7.68,8.43s-.52,1.93-1.38,2.48c-.68.44-1.48.64-2.26.84-5.75,1.47-11.49,2.94-17.24,4.41-1.98.51-4.77,1.32-6.59-.03Z"/>
</svg>