<?xml version="1.0" encoding="UTF-8"?>
<svg id="Worm" xmlns="http://www.w3.org/2000/svg" viewBox="0 0 77 74">
  <defs>
    <style>
      .cls-1 {
        fill: #00b6ff;
      }

      .cls-2 {
        fill: #fff;
      }

      .cls-3 {
        fill: #2d2c2c;
      }
    </style>
  </defs>
  <g>
    <g>
      <path class="cls-2" d="m37.06,23.13c0-6.4,5.35-11.75,11.75-11.75s11.75,5.35,11.75,11.75-5.35,11.75-11.75,11.75-11.75-5.35-11.75-11.75Z"/>
      <path class="cls-2" d="m18.73,62.91c-.4-.3-.74-.7-.99-1.24-.29-.28-.49-.66-.57-1.09,0-.04-.01-.07-.02-.11-.01-.07-.02-.13-.03-.22-.36-4-.22-8.04.21-12.03s.9-7.76,1.97-11.44c.36-1.23.61-2.82,1.62-3.72,1.51-1.35,3.21.67,4.36,1.63,4.55,3.78,8.83,8.14,13.24,12.09,7.53,6.74,7.68,6.85,7.68,8.43s-.52,1.93-1.38,2.48c-.68.44-1.48.64-2.26.84-5.75,1.47-11.49,2.94-17.24,4.41-1.98.51-4.77,1.32-6.59-.03Z"/>
    </g>
    <g>
      <path class="cls-1" d="m37.06,23.13c0-6.4,5.35-11.75,11.75-11.75s11.75,5.35,11.75,11.75-5.35,11.75-11.75,11.75-11.75-5.35-11.75-11.75Z"/>
      <path class="cls-1" d="m18.73,62.91c-.4-.3-.74-.7-.99-1.24-.29-.28-.49-.66-.57-1.09,0-.04-.01-.07-.02-.11-.01-.07-.02-.13-.03-.22-.36-4-.22-8.04.21-12.03s.9-7.76,1.97-11.44c.36-1.23.61-2.82,1.62-3.72,1.51-1.35,3.21.67,4.36,1.63,4.55,3.78,8.83,8.14,13.24,12.09,7.53,6.74,7.68,6.85,7.68,8.43s-.52,1.93-1.38,2.48c-.68.44-1.48.64-2.26.84-5.75,1.47-11.49,2.94-17.24,4.41-1.98.51-4.77,1.32-6.59-.03Z"/>
    </g>
    <g>
      <path class="cls-3" d="m48.81,11.38c6.4,0,11.75,5.35,11.75,11.75s-5.35,11.75-11.75,11.75-11.75-5.35-11.75-11.75,5.35-11.75,11.75-11.75m0-8c-10.89,0-19.75,8.86-19.75,19.75s8.86,19.75,19.75,19.75,19.75-8.86,19.75-19.75S59.7,3.38,48.81,3.38h0Z"/>
      <path class="cls-3" d="m22.01,32.62c1.19,0,2.38,1.35,3.27,2.08,4.55,3.78,8.83,8.14,13.24,12.09,7.53,6.74,7.68,6.85,7.68,8.43s-.52,1.93-1.38,2.48c-.68.44-1.48.64-2.26.84-5.75,1.47-11.49,2.94-17.24,4.41-1.17.3-2.63.71-4.01.71-.94,0-1.84-.19-2.58-.74-.4-.3-.74-.7-.99-1.24-.29-.28-.49-.66-.57-1.09,0-.04-.01-.07-.02-.11-.01-.07-.02-.13-.03-.22-.36-4-.22-8.04.21-12.03.41-3.8.9-7.76,1.97-11.44.36-1.23.61-2.82,1.62-3.72.36-.32.73-.45,1.1-.45m0-8h0c-2.35,0-4.63.88-6.42,2.48-2.64,2.35-3.42,5.38-3.85,7-.04.16-.08.32-.13.47-1.26,4.36-1.81,8.89-2.23,12.8-.53,4.95-.61,9.4-.23,13.61.03.31.06.55.11.8l.05.3.02.07c.29,1.47.89,2.84,1.76,4.02.75,1.24,1.71,2.3,2.86,3.16,1.43,1.06,3.86,2.33,7.36,2.33,2.28,0,4.35-.53,5.72-.89l.27-.07,8.62-2.21,8.62-2.2c1.06-.27,2.83-.72,4.6-1.86,1.25-.8,5.06-3.25,5.06-9.21,0-2.98-.91-5.25-3.05-7.61-1.22-1.34-3.03-2.96-6.98-6.5l-.31-.28c-1.65-1.48-3.27-3.01-4.99-4.62-2.71-2.55-5.51-5.19-8.47-7.65-.09-.08-.19-.17-.3-.27-1.31-1.19-4.04-3.66-8.08-3.66h0Z"/>
    </g>
  </g>
  <g>
    <path class="cls-1" d="m37.06,23.13c0-6.4,5.35-11.75,11.75-11.75s11.75,5.35,11.75,11.75-5.35,11.75-11.75,11.75-11.75-5.35-11.75-11.75Z"/>
    <path class="cls-1" d="m18.73,62.91c-.4-.3-.74-.7-.99-1.24-.29-.28-.49-.66-.57-1.09,0-.04-.01-.07-.02-.11-.01-.07-.02-.13-.03-.22-.36-4-.22-8.04.21-12.03s.9-7.76,1.97-11.44c.36-1.23.61-2.82,1.62-3.72,1.51-1.35,3.21.67,4.36,1.63,4.55,3.78,8.83,8.14,13.24,12.09,7.53,6.74,7.68,6.85,7.68,8.43s-.52,1.93-1.38,2.48c-.68.44-1.48.64-2.26.84-5.75,1.47-11.49,2.94-17.24,4.41-1.98.51-4.77,1.32-6.59-.03Z"/>
  </g>
</svg>