<?xml version="1.0" encoding="UTF-8"?>
<svg id="Worm" xmlns="http://www.w3.org/2000/svg" viewBox="0 0 77 74">
  <defs>
    <style>
      .cls-1 {
        fill: #fd7bad;
      }
    </style>
  </defs>
  <path class="cls-1" d="m15.85,25.75c-1.55-12.54,16.57-14.7,17.47-1.86.96,11.71-16.11,13.53-17.47,1.86Z"/>
  <path class="cls-1" d="m43.57,23.9c-.75-8.9,11.1-13.37,16.08-5.76-.1-.15-.18-.27-.27-.4.04.06.08.11.12.17.23.33.46.67.68,1-.06-.1-.13-.19-.2-.29-.04-.06-.08-.12-.12-.17,8.16,13.27-14.99,21.02-16.28,5.45Z"/>
  <path class="cls-1" d="m51.14,60.94c-11.42-1.14-11.87-18.52-1.53-21.68,6.51-1.71,14.32,4.16,13.16,11.11-.57,5.54-5.66,11.46-11.64,10.57Z"/>
  <path class="cls-1" d="m43.08,27.17c-4.08-6.66.83-16.21,9.05-14.92,3.05-.05,6.16.85,8.07,3.59,7.65,11.66-9.54,23.4-17.12,11.32Z"/>
  <path class="cls-1" d="m16.85,31.13c-9.48-7.68-2.08-24.89,9.93-17.48,13.45,6.14,2.55,26.69-9.93,17.48Z"/>
  <path class="cls-1" d="m19.81,62.65c-15.11-5.09-3.53-27.93,9.55-19.15,8.35,6.54.79,22.33-9.55,19.15Z"/>
</svg>