<?xml version="1.0" encoding="UTF-8"?>
<svg id="Worm" xmlns="http://www.w3.org/2000/svg" viewBox="0 0 77 74">
  <defs>
    <style>
      .cls-1 {
        fill: #fff;
      }

      .cls-2 {
        fill: #fd7bad;
      }

      .cls-3 {
        fill: #2d2c2c;
      }
    </style>
  </defs>
  <g>
    <g>
      <path class="cls-1" d="m32.87,21.39c-.4-3.07-2.25-5.99-6.09-7.74-12.02-7.42-19.41,9.8-9.93,17.48,1.95,1.44,3.87,2.15,5.66,2.3,5.19,1.1,11.4-2.35,10.81-9.54-.06-.91-.22-1.74-.45-2.5Z"/>
      <path class="cls-1" d="m49.61,39.27c-10.35,3.15-9.9,20.53,1.53,21.68,5.98.9,11.07-5.02,11.64-10.57,1.15-6.95-6.66-12.82-13.16-11.11Z"/>
      <path class="cls-1" d="m47.69,31.4c4.95,2.91,12.66-.14,13.76-6.02,1.1-2.8.97-6.17-1.24-9.53-1.92-2.74-5.02-3.65-8.07-3.59-8.22-1.29-13.13,8.25-9.05,14.92,1.31,2.08,2.9,3.44,4.61,4.23Z"/>
      <path class="cls-1" d="m29.37,43.5c-13.08-8.78-24.67,14.06-9.55,19.15,10.34,3.18,17.91-12.61,9.55-19.15Z"/>
    </g>
    <g>
      <path class="cls-2" d="m32.87,21.39c-.4-3.07-2.25-5.99-6.09-7.74-12.02-7.42-19.41,9.8-9.93,17.48,1.95,1.44,3.87,2.15,5.66,2.3,5.19,1.1,11.4-2.35,10.81-9.54-.06-.91-.22-1.74-.45-2.5Z"/>
      <path class="cls-2" d="m49.61,39.27c-10.35,3.15-9.9,20.53,1.53,21.68,5.98.9,11.07-5.02,11.64-10.57,1.15-6.95-6.66-12.82-13.16-11.11Z"/>
      <path class="cls-2" d="m47.69,31.4c4.95,2.91,12.66-.14,13.76-6.02,1.1-2.8.97-6.17-1.24-9.53-1.92-2.74-5.02-3.65-8.07-3.59-8.22-1.29-13.13,8.25-9.05,14.92,1.31,2.08,2.9,3.44,4.61,4.23Z"/>
      <path class="cls-2" d="m29.37,43.5c-13.08-8.78-24.67,14.06-9.55,19.15,10.34,3.18,17.91-12.61,9.55-19.15Z"/>
    </g>
    <g>
      <path class="cls-3" d="m21.09,11.83c1.72,0,3.64.55,5.69,1.81,3.84,1.75,5.69,4.67,6.09,7.74.22.76.38,1.59.45,2.5.52,6.31-4.2,9.74-8.88,9.74-.65,0-1.3-.07-1.94-.2-1.79-.15-3.7-.86-5.66-2.3-7.86-6.37-4.12-19.29,4.24-19.29m0-8c-6.89,0-12.94,4.51-15.42,11.49-2.81,7.92-.34,16.77,6.14,22.02l.14.11.15.11c2.91,2.15,6.02,3.42,9.23,3.79,1.02.19,2.06.28,3.11.28,4.83,0,9.42-1.97,12.59-5.42,3.14-3.41,4.65-8,4.26-12.93-.09-1.21-.28-2.4-.58-3.56-.96-5.71-4.62-10.46-10.15-13.14-3.1-1.83-6.28-2.75-9.47-2.75h0Z"/>
      <path class="cls-3" d="m51.98,38.97c5.88,0,11.82,5.29,10.8,11.41-.53,5.17-4.98,10.66-10.42,10.66-.4,0-.8-.03-1.21-.09-11.42-1.14-11.87-18.52-1.53-21.68.78-.2,1.57-.3,2.36-.3m0-8c-1.5,0-2.98.19-4.4.56l-.15.04-.15.04c-8.58,2.62-13.92,11.11-12.98,20.64.89,9.02,7.25,15.67,15.86,16.62.73.1,1.47.15,2.2.15,4.79,0,9.39-2.12,12.94-5.97,2.97-3.22,4.93-7.44,5.42-11.63.73-4.83-.69-9.63-4.01-13.55-3.67-4.33-9.18-6.92-14.72-6.92h0Z"/>
      <path class="cls-3" d="m50.65,12.14c.48,0,.98.04,1.49.12.08,0,.16,0,.25,0,2.97,0,5.96.93,7.83,3.6,2.21,3.36,2.34,6.73,1.24,9.53-.81,4.34-5.22,7.14-9.46,7.14-1.51,0-3-.35-4.29-1.12-1.7-.79-3.3-2.15-4.61-4.23-3.83-6.25.26-15.04,7.56-15.04m0-8c-6.11,0-11.6,3.27-14.67,8.75-3.25,5.8-3.14,12.87.28,18.46l.02.04.03.04c2,3.18,4.58,5.55,7.67,7.07,2.39,1.32,5.15,2.02,8,2.02,8.14,0,15.38-5.49,17.16-12.9,1.84-5.31,1.03-11.16-2.25-16.16l-.06-.1-.07-.1c-3.11-4.45-8.11-6.93-14.1-7.01-.67-.08-1.35-.12-2.02-.12h0Z"/>
      <path class="cls-3" d="m23.36,41.51c1.9,0,3.93.6,6.01,1.99,7.6,5.95,2.02,19.57-6.84,19.57-.87,0-1.78-.13-2.71-.42-12.72-4.28-6.53-21.14,3.55-21.14m0-8c-8.95,0-16.88,7.19-18.44,16.72-1.5,9.12,3.35,16.97,12.33,20l.1.03.1.03c1.67.51,3.37.77,5.06.77,7.6,0,14.54-5.33,17.28-13.27,2.69-7.79.53-15.87-5.5-20.59l-.23-.18-.24-.16c-3.26-2.19-6.88-3.35-10.46-3.35h0Z"/>
    </g>
  </g>
  <g>
    <path class="cls-2" d="m15.85,25.75c-1.55-12.54,16.57-14.7,17.47-1.86.96,11.71-16.11,13.53-17.47,1.86Z"/>
    <path class="cls-2" d="m43.57,23.9c-.75-8.9,11.1-13.37,16.08-5.76-.1-.15-.18-.27-.27-.4.04.06.08.11.12.17.23.33.46.67.68,1-.06-.1-.13-.19-.2-.29-.04-.06-.08-.12-.12-.17,8.16,13.27-14.99,21.02-16.28,5.45Z"/>
    <path class="cls-2" d="m51.14,60.94c-11.42-1.14-11.87-18.52-1.53-21.68,6.51-1.71,14.32,4.16,13.16,11.11-.57,5.54-5.66,11.46-11.64,10.57Z"/>
    <path class="cls-2" d="m43.08,27.17c-4.08-6.66.83-16.21,9.05-14.92,3.05-.05,6.16.85,8.07,3.59,7.65,11.66-9.54,23.4-17.12,11.32Z"/>
    <path class="cls-2" d="m16.85,31.13c-9.48-7.68-2.08-24.89,9.93-17.48,13.45,6.14,2.55,26.69-9.93,17.48Z"/>
    <path class="cls-2" d="m19.81,62.65c-15.11-5.09-3.53-27.93,9.55-19.15,8.35,6.54.79,22.33-9.55,19.15Z"/>
  </g>
</svg>