<?xml version="1.0" encoding="UTF-8"?><svg id="Layer_1" xmlns="http://www.w3.org/2000/svg" viewBox="0 0 400 400"><defs><style>.cls-1,.cls-2{fill:#00b6ff;}.cls-3{fill:#fff;}.cls-4{fill:#2d2c2c;}.cls-2{opacity:.54;}</style></defs><path class="cls-3" d="m200.39,368c-1.75,0-3.51-.06-5.23-.17-.49,0-.97.01-1.46.01-32.73,0-59.02-17.05-66.99-43.43-7.56-25.03,3.68-51.35,29.36-69.02-7.2-6.04-15.47-11.26-23.52-16.33-18.32-11.56-37.27-23.51-45.72-45.83-7.92-18.2-8.08-42.22-.45-67.65,7.22-24.08,20.56-46.07,36.6-60.38,9.28-10,21.71-15.51,35-15.51.74,0,1.49.02,2.24.05,8.99.27,17.99,3.05,25.98,8.05,10.54,6.45,18,15.67,21.55,26.64,1.77,5.17,2.61,10.6,2.47,16.1.42,9.02-1.71,16.87-6.7,24.67-2.84,5.26-6.43,9.92-10.69,13.84-2.98,3.74-5.93,7.85-7.93,12.72,36.41,22.56,70.4,49.45,76.9,91.73,1.09,5.83,1.47,12.11,1.12,18.69,7.39,7.2,12.69,15.93,15.77,25.99,8.46,29.75-13.47,60.27-38.62,71.54l-.2.08c-14.33,5.52-27.26,8.21-39.51,8.21h0Z"/><path class="cls-4" d="m158,53.69c.68,0,1.37.02,2.06.05,8.51.26,16.84,2.94,24.04,7.44,10.41,6.37,16.82,15.06,19.87,24.48,1.6,4.67,2.43,9.67,2.28,14.91.48,9.57-2.24,16.53-6.15,22.6-2.63,4.91-6.06,9.39-10.17,13.14-4.01,5.02-7.75,10.35-9.85,17.17,34.44,21.08,71.28,48,77.81,90.69,1.16,6.17,1.46,12.83.96,19.63,7.23,6.62,12.85,15.09,16.05,25.54,7.71,27.14-12.09,55.82-36.43,66.72-12.2,4.7-25.01,7.94-38.07,7.94-1.71,0-3.42-.06-5.13-.17-.52,0-1.04.01-1.56.01-65.26,0-90.4-68.59-34.14-105.98,1.06-.64,2.14-1.25,3.24-1.84-23.56-22.26-59.96-31.65-72.25-64.29-16.03-36.7,3.42-95.4,35.25-123.67,7.98-8.66,19.1-14.37,32.2-14.37m0-8c-14.36,0-27.77,5.91-37.8,16.65-16.52,14.79-30.23,37.4-37.63,62.09-7.89,26.29-7.68,51.25.57,70.31,8.94,23.51,28.43,35.81,47.29,47.7,6.72,4.24,13.18,8.31,19.06,12.8-24.08,18.6-34.25,45.03-26.61,70.32,4.03,13.35,12.59,24.78,24.76,33.07,12.7,8.64,28.62,13.21,46.06,13.21.45,0,.9,0,1.36,0,1.76.11,3.55.17,5.33.17,12.75,0,26.15-2.77,40.95-8.47l.2-.08.2-.09c13.71-6.14,26.05-17.26,33.86-30.51,8.7-14.75,11.18-30.98,7-45.7l-.02-.08-.02-.08c-3.1-10.12-8.31-18.98-15.52-26.4.21-6.22-.21-12.19-1.25-17.78-3.25-21.03-13.26-39.9-30.6-57.69-13.77-14.13-30.71-25.83-45.12-34.89,1.52-2.87,3.46-5.59,5.75-8.48,4.44-4.15,8.2-9.04,11.19-14.54,5.38-8.45,7.68-16.97,7.25-26.75.13-5.89-.77-11.73-2.69-17.35-3.85-11.85-11.89-21.79-23.25-28.75-8.56-5.35-18.22-8.33-27.94-8.63-.79-.03-1.58-.05-2.36-.05h0Z"/><path d="m274.89,289.34c7.71,27.14-12.09,55.82-36.43,66.72-13.79,5.31-28.38,8.76-43.2,7.77-66.41,1.1-92.41-68.28-35.7-105.97,37.6-22.66,100.97-15.47,115.33,31.48Z"/><path class="cls-2" d="m184.51,329.1c-27.98-11.11-36.35-47.25-20.03-71.46-23.47-23.45-61.35-32.49-73.94-65.91-18.42-42.17,10-113.39,50.23-134.11,29.59-13.67,66.4,10.25,65.46,42.94,1.27,25.33-19.86,32.41-26.17,52.9,34.44,21.08,71.28,48,77.81,90.69,7.85,41.59-23.64,105.24-73.37,84.93Z"/><path class="cls-1" d="m141.37,143.96c-57.16-25.16-21.32-109.69,36.28-86.2,56.29,25.48,21.15,108.73-36.28,86.2Z"/><path class="cls-4" d="m158.74,133.47c-13.15.41-25.29-9.35-28.37-22.01-.52-4.57,6.25-5.82,7.37-1.33,5.85,20.95,36.11,20.86,43.73,1.31.76-5.79,8.74-5.12,7.65.76-3.87,13.01-16.94,21.75-30.37,21.26Z"/></svg>