<?xml version="1.0" encoding="UTF-8"?>
<svg id="Worm" xmlns="http://www.w3.org/2000/svg" viewBox="0 0 400 400">
  <defs>
    <style>
      .cls-1 {
        fill: #b3b3b3;
      }

      .cls-2 {
        fill: #2d2c2c;
      }

      .cls-3 {
        fill: rgba(255, 255, 255, .5);
      }

      .cls-4 {
        fill: #606060;
        opacity: .4;
      }
    </style>
  </defs>
  <g>
    <path class="cls-2" d="m200.39,368c-1.75,0-3.51-.06-5.23-.17-.49,0-.97.01-1.46.01-32.73,0-59.02-17.05-66.99-43.43-7.68-25.44,4.06-52.21,30.64-69.88l.15-.09c1.43-.86,2.92-1.7,4.45-2.49,2.27-5.49,4.7-10.83,7-15.81l.09-.18c18.36-34.9,47.98-58.77,79.24-63.86,4.14-.68,8.4-1.02,12.64-1.02,23.01,0,45.76,10.24,60.84,27.4,21.79,24.06,24.55,58.05,26.76,85.36.21,2.6.52,5.3.83,7.9.63,5.42,1.29,11.02,1.15,16.65-.16,6.58-1.51,13.03-4,19.16-3.48,9.17-9.52,17.32-17.46,23.47l-.29.23c-.42.32-.85.64-1.28.94l-.39.28c-.43.3-.85.59-1.28.87l-.44.29c-.42.27-.86.55-1.3.82l-.42.25c-.45.27-.91.54-1.38.79l-.23.12c-1.69.92-3.39,1.74-5.08,2.44l-.1.04c-.46.19-.93.37-1.4.54l-.58.22c-.43.15-.86.3-1.29.44l-.72.23c-.42.13-.83.25-1.25.37-.28.08-.54.15-.8.22-.4.11-.82.21-1.24.31-.25.06-.83.19-.83.19-.41.09-.82.18-1.23.26-.24.05-.48.09-.71.13l-.35.06c-.35.06-.7.12-1.05.17-.2.03-.42.06-.64.08l-.25.03c-.73.09-1.47.17-2.21.22l-.27.02c-.26.02-.53.04-.8.06-.29.02-.58.02-.86.03h-.39c-.32.02-.63.03-.95.04h-.15c-.28,0-.56,0-.84,0h-.1c-.37,0-.75-.01-1.14-.03-.34-.01-.7-.04-1.06-.06-.39-.02-.78-.05-1.17-.09-.36-.03-.71-.07-1.06-.11-.41-.05-.81-.1-1.21-.15l-.11-.02c-.3-.04-.61-.08-.91-.13-.44-.07-.87-.15-1.29-.23l-.24-.04c-.24-.04-.48-.09-.72-.14-.49-.1-.99-.22-1.49-.34,0,0-.58-.13-.75-.18-.75-.2-1.5-.41-2.24-.64-.14-.05-.59-.2-.59-.2-.57-.18-1.12-.37-1.67-.57-.2-.07-.84-.33-.84-.33-.48-.18-.95-.37-1.42-.57-.25-.11-.51-.22-.77-.34l-.14-.06c-.44-.2-.89-.4-1.34-.62-.31-.15-.62-.3-.93-.46-.44-.22-.89-.45-1.33-.69-.31-.17-.61-.33-.92-.5-.46-.26-.91-.52-1.36-.79,0,0-.64-.38-.87-.52-.5-.31-.99-.64-1.49-.97l-.22-.14c-.17-.11-.34-.22-.5-.33-.72-.49-1.45-1.01-2.18-1.56l-.1-.08-.5-.45c-2.11-1.81-4.07-3.72-5.86-5.71-6.28,6.4-13.59,11.57-21.38,15.06l-.2.08c-14.33,5.52-27.26,8.21-39.51,8.21Z"/>
    <path class="cls-2" d="m260.91,175.06c21.83,0,43.3,9.5,57.84,26.04,20.29,22.39,23.44,54.2,25.78,83.04.65,8.01,2.16,16.09,1.96,24.13-.15,6.18-1.45,12.19-3.71,17.75-3.26,8.59-8.97,16.21-16.2,21.82-.09.07-.18.14-.27.21-.39.3-.78.59-1.18.87-.12.09-.25.18-.37.27-.39.27-.78.54-1.17.8-.13.09-.27.18-.4.26-.4.26-.8.51-1.2.76-.13.08-.25.15-.38.23-.42.25-.85.5-1.28.74-.08.04-.16.08-.24.13-1.51.83-3.07,1.58-4.66,2.23-.03.01-.06.03-.09.04-.43.17-.86.34-1.29.5-.18.07-.35.14-.53.2-.39.14-.79.28-1.19.41-.22.07-.44.15-.66.22-.38.12-.77.23-1.15.34-.24.07-.49.14-.73.2-.38.1-.76.2-1.14.29-.26.06-.51.12-.77.17-.38.08-.75.16-1.13.24-.27.05-.54.09-.8.14-.38.06-.75.13-1.13.19-.27.04-.54.07-.82.1-.67.08-1.34.15-2.02.2-.33.03-.65.06-.98.07-.33.02-.66.02-.99.03-.34.01-.68.02-1.02.03-.04,0-.09,0-.13,0-.29,0-.57,0-.86-.01-.35,0-.69-.01-1.04-.03-.33-.01-.65-.03-.98-.05-.36-.02-.71-.05-1.07-.08-.32-.03-.64-.06-.97-.1-.37-.04-.74-.09-1.11-.14-.31-.04-.62-.09-.94-.14-.39-.06-.79-.14-1.18-.21-.29-.06-.58-.11-.88-.17-.45-.1-.91-.21-1.36-.32-.23-.06-.47-.11-.7-.17-.68-.18-1.36-.37-2.04-.59-.18-.06-.37-.13-.55-.19-.51-.17-1.02-.34-1.52-.52-.26-.1-.52-.2-.78-.3-.43-.17-.87-.34-1.3-.52-.28-.12-.56-.25-.85-.37-.41-.18-.83-.37-1.24-.57-.29-.14-.57-.28-.86-.42-.41-.21-.82-.42-1.24-.64-.28-.15-.57-.3-.85-.46-.42-.24-.84-.49-1.27-.74-.27-.16-.54-.32-.8-.48-.46-.29-.93-.59-1.39-.9-.22-.15-.44-.29-.67-.44-.68-.47-1.37-.95-2.04-1.47-.14-.12-.26-.24-.4-.35h0c-3.25-2.8-6.01-5.73-8.33-8.74-6.47,7.48-14.53,13.6-23.17,17.47-12.2,4.7-25.01,7.94-38.07,7.94-1.71,0-3.42-.06-5.13-.17-.52,0-1.04.01-1.56.01-65.26,0-90.4-68.59-34.14-105.98,1.79-1.08,3.63-2.08,5.52-3.02,2.41-5.93,5.01-11.66,7.49-17.02,15.49-29.44,42.48-56.26,76.34-61.78,3.99-.65,8-.97,12-.97m0-8c-4.46,0-8.93.36-13.29,1.08-17.44,2.84-33.92,10.83-48.97,23.74-13.05,11.19-24.51,25.78-33.15,42.21l-.1.18-.09.19c-2.13,4.62-4.37,9.54-6.51,14.62-1.15.62-2.28,1.27-3.37,1.93l-.15.09-.15.1c-28.11,18.68-40.46,47.18-32.25,74.37,4.03,13.35,12.59,24.78,24.76,33.07,12.7,8.64,28.62,13.21,46.06,13.21.45,0,.9,0,1.36,0,1.76.11,3.55.17,5.33.17,12.75,0,26.15-2.77,40.95-8.47l.2-.08.2-.09c7.05-3.16,13.72-7.6,19.65-13.04,1.08,1.05,2.2,2.08,3.36,3.08l.04.03c.13.12.27.24.41.36l.18.15.19.14c.74.56,1.5,1.1,2.33,1.67.19.13.38.25.57.38l.19.13c.53.35,1.06.7,1.59,1.03.24.15.49.3.73.44l.19.11c.49.29.97.58,1.46.85.33.18.65.36.98.54.48.26.95.5,1.43.74.33.17.66.33,1,.49.48.23.97.45,1.45.67l.14.06c.28.13.57.25.85.37.5.21,1.01.41,1.52.61l.21.08c.24.09.47.18.71.27.6.22,1.19.42,1.79.61l.11.04c.18.06.36.12.54.18.79.25,1.6.48,2.41.69.21.06.43.11.64.16l.18.04c.54.13,1.08.26,1.61.37.27.06.55.11.82.16l.21.04c.47.09.93.17,1.4.25.37.06.73.11,1.1.16.45.06.89.12,1.33.17.38.04.76.08,1.15.11.43.04.85.07,1.27.1.39.02.78.05,1.16.06.42.02.83.02,1.24.03h.17c.27,0,.54.01.81.01h.19c.35,0,.69-.01,1.03-.02h.18s.25-.01.25-.01c.31,0,.62-.02.93-.03.31-.02.61-.04.92-.07l.25-.02c.8-.06,1.6-.14,2.39-.24l.23-.03c.25-.03.5-.06.75-.1.39-.06.77-.12,1.16-.19l.18-.03.2-.03c.25-.04.51-.09.76-.13.45-.09.89-.18,1.33-.28h.07c.28-.08.56-.14.84-.21.45-.11.89-.22,1.34-.34.29-.08.58-.16.86-.24.45-.13.91-.26,1.36-.4.24-.07.47-.15.7-.23l.08-.02c.47-.15.94-.31,1.4-.48.16-.06.32-.12.48-.18l.15-.06c.51-.19,1.01-.38,1.51-.59.06-.02.11-.05.17-.07,1.8-.74,3.62-1.62,5.39-2.59.1-.06.19-.1.28-.15.5-.28,1-.57,1.49-.86l.11-.06c.11-.07.22-.13.34-.2.47-.29.94-.58,1.4-.88.16-.1.31-.2.47-.31.46-.3.91-.61,1.36-.93l.35-.25.08-.06c.47-.33.92-.67,1.37-1.01l.25-.19.07-.05c8.49-6.59,14.98-15.31,18.75-25.22,2.65-6.56,4.09-13.45,4.26-20.48.15-5.92-.52-11.66-1.17-17.21-.31-2.69-.61-5.23-.81-7.76-2.14-26.42-5.07-62.61-27.78-87.72-7.85-8.92-17.84-16.24-28.88-21.19-10.97-4.92-23.05-7.52-34.93-7.52h0Z"/>
  </g>
  <path d="m274.89,289.34c7.71,27.14-12.09,55.82-36.43,66.72-13.79,5.31-28.38,8.76-43.2,7.77-66.41,1.1-92.41-68.28-35.7-105.97,37.6-22.66,100.97-15.47,115.33,31.48Z"/>
  <g>
    <path class="cls-3" d="m247.57,305.27s0,0,0,0c0,.01,0,.03,0,.04,0,0,0-.02,0-.03Z"/>
    <path class="cls-3" d="m254.68,318.76s0,0,0,0h0s0,0,0,0Z"/>
    <path class="cls-3" d="m254.68,318.75h0s0,0,0,0h0s0,0,0,0Z"/>
    <path class="cls-3" d="m254.68,318.75h0s0,0,0,0c0,0,0,0,0,0Z"/>
    <path class="cls-3" d="m254.68,318.75s0,0,0,0c0,0,0,0,0,0Z"/>
    <path class="cls-3" d="m254.68,318.75s0,0,0,0c0,0,0,0,0,0h0s0,0,0,0Z"/>
    <path class="cls-3" d="m254.68,318.75h0s0,0,0,0c0,0,0,0,0,0,0,0,0,0,0,0,0,0,0,0,0,0h0Z"/>
    <path class="cls-3" d="m254.67,318.72s0,0,0,0c0,0,0,0,0,.01,0,0,0,0,0-.01Z"/>
    <path class="cls-3" d="m254.67,318.72s0,0,0,0c0,0,0,0,0,0t0,0Z"/>
    <path class="cls-3" d="m247.66,265.33c.12.06.25.12.38.2-.09-.11-.23-.19-.38-.2Zm96.86,18.81c.65,8.01,2.16,16.09,1.96,24.13-.53,21.42-14.74,40.88-35.69,46.48-1.44.38-2.9.7-4.37.94-10.26,1.67-21.01-.31-30.13-5.26-9.37-5.09-15.75-13.16-19.24-23.18-1.2-3.43-2.08-6.97-2.85-10.52-.3-1.38-.64-2.75-.94-4.13-.29-1.33-.58-2.65-.84-3.98-.21-1.06-.39-2.12-.57-3.19-1.03,2.42-2.21,4.77-3.44,7.09-11.73,33.8-58.02,43.21-81.94,14.31-21.96-26.16-6.35-62.05,6.11-89,15.49-29.44,42.48-56.26,76.34-61.78,25.73-4.22,52.63,5.5,69.84,25.07,20.29,22.39,23.44,54.2,25.78,83.04Z"/>
    <path class="cls-2" d="m253.28,271.45s0,0,0,0c0,0,0,0,0,0Z"/>
    <g>
      <path class="cls-1" d="m331.92,277.05c40.36,42.75-15.62,105.19-61.57,70.64-50.33-42.62,13.35-115.43,61.57-70.64Z"/>
      <path class="cls-2" d="m327.81,347.86c-6.85-11.1-16.55-19.77-30.37-19.6-11.72.53-22.97,9.14-27.48,20.08.14.12.26.24.4.35,20.24,15.22,42.42,11.61,57.46-.83Z"/>
    </g>
    <path class="cls-2" d="m312.83,313.32c-6.85-5.19-13.67-10.44-20.77-15.29-3.43-2.29-6.92-4.56-10.59-6.44-2.56-.61-4.1-3.72-2.65-6.02,2.38-3.86,6.73-.99,9.57.71,5.24,3.05,10.24,6.51,15.14,10.08,4.77,3.48,9.5,7.03,14.18,10.63,4.1,3.22-.71,9.48-4.89,6.33Z"/>
    <path class="cls-2" d="m281.76,317.29c-3.61-.33-4.69-5.54-1.61-7.36,10.63-9.99,21.71-19.35,33.11-28.42,4.15-3.13,9,3.08,4.89,6.33-3.66,2.81-7.2,5.77-10.73,8.74-4.73,3.98-9.6,8.08-14.21,12.15-3.42,2.3-7.37,8.78-11.45,8.55Z"/>
    <path class="cls-4" d="m247.66,265.33c.12.06.25.12.38.2-.09-.11-.23-.19-.38-.2Z"/>
    <path class="cls-4" d="m248.41,312.51c1.23-2.32,2.41-4.68,3.44-7.09.01.09.03.17.04.26.18-6.74.48-13.47,1.07-20.18,0-.09,0-.19,0-.28,0-.88.05-1.75.09-2.62.02-.45.03-.91.05-1.36.02-.45.04-.9.06-1.35.02-.39.03-.78.04-1.17,0,0,0,.01,0,.02v-.02s0,.02,0,.03c.01-.61,0-1.23-.01-1.85-.01-.5-.02-.99-.02-1.49,0-.31,0-.62.02-.92,0-.12,0-.24,0-.36,0-.23.01-.47.02-.71.02-.31.05-.62.07-.93,0-.07,0-.13.01-.2,0-.19-.02-.38-.02-.58v.04c0-.1,0-.2,0-.3,0,0,0,0,0,0,0-.24-.03-.49-.04-.73,0-.04,0-.08,0-.12-.02-.28-.04-.57-.06-.85-.02-.27-.03-.54-.04-.82-.73-5.12-5.15-9.74-10.72-9.55-12.42-1.39-22.5,33.21-25.12,43.25-3.79,14.05-5.53,27.49-5.57,40.59,16.14-2.89,30.78-13.71,36.68-30.71Zm-.37-46.98c-.12-.07-.25-.14-.38-.2.14.01.28.09.38.2Z"/>
  </g>
</svg>