<?xml version="1.0" encoding="UTF-8"?><svg id="Layer_1" xmlns="http://www.w3.org/2000/svg" xmlns:xlink="http://www.w3.org/1999/xlink" viewBox="0 0 716.02 47.78"><defs><style>.cls-1{fill:url(#linear-gradient);}</style><linearGradient id="linear-gradient" x1="387.84" y1="-120.41" x2="786.91" y2="-120.41" gradientTransform="translate(-63.77 -391.43) rotate(56.88)" gradientUnits="userSpaceOnUse"><stop offset="0" stop-color="#fd7cab"/><stop offset="1" stop-color="#ffbf2a"/></linearGradient></defs><path class="cls-1" d="m1.86,42.55C.69,40.76,0,38.62,0,36.33c-.03-6.35,5.1-11.52,11.45-11.55,13.99-.06,20.37-4.15,28.45-9.33,8.95-5.74,20.09-12.88,40.76-12.97,20.67-.09,31.87,6.95,40.87,12.61,8.13,5.11,14.55,9.14,28.53,9.08,13.98-.06,20.37-4.15,28.45-9.34,8.95-5.74,20.09-12.88,40.76-12.97,20.67-.09,31.87,6.95,40.87,12.61,8.13,5.11,14.54,9.14,28.53,9.08,13.98-.06,20.36-4.15,28.44-9.34,8.95-5.74,20.09-12.88,40.76-12.97,20.67-.09,31.87,6.95,40.87,12.61,8.13,5.11,14.55,9.14,28.53,9.08,13.99-.06,20.37-4.15,28.45-9.33,8.95-5.74,20.09-12.88,40.76-12.97,20.67-.09,31.87,6.95,40.87,12.61,8.13,5.11,14.54,9.14,28.53,9.08,13.98-.06,20.37-4.15,28.45-9.34C603.27,7.23,614.41.09,635.08,0c20.67-.09,31.87,6.95,40.87,12.61,8.13,5.11,14.54,9.14,28.52,9.08,6.35-.03,11.52,5.1,11.55,11.45.03,6.35-5.1,11.52-11.45,11.55-20.67.09-31.87-6.95-40.87-12.61-8.13-5.11-14.54-9.14-28.52-9.08-13.98.06-20.37,4.15-28.45,9.34-8.95,5.74-20.09,12.88-40.76,12.97-20.67.09-31.87-6.95-40.87-12.61-8.13-5.11-14.54-9.14-28.53-9.08-13.99.06-20.37,4.15-28.45,9.33-8.95,5.74-20.09,12.88-40.76,12.97-20.67.09-31.87-6.95-40.87-12.61-8.13-5.11-14.55-9.14-28.53-9.08-13.98.06-20.36,4.15-28.44,9.33-8.95,5.74-20.09,12.88-40.76,12.97-20.67.09-31.87-6.95-40.87-12.61-8.13-5.11-14.54-9.14-28.53-9.08-13.98.06-20.37,4.15-28.45,9.34-8.95,5.74-20.09,12.88-40.76,12.97-20.67.09-31.87-6.95-40.87-12.61-8.13-5.11-14.55-9.14-28.53-9.08-13.99.06-20.37,4.15-28.45,9.33-8.95,5.74-20.09,12.88-40.76,12.97-4.05.02-7.63-2.06-9.69-5.23Z"/></svg>