<?xml version="1.0" encoding="UTF-8"?>
<svg id="Worm" xmlns="http://www.w3.org/2000/svg" viewBox="0 0 400 400">
  <defs>
    <style>
      .cls-1 {
        fill: #00b6ff;
      }

      .cls-2 {
        fill: #fff;
      }

      .cls-3 {
        fill: #2d2c2c;
      }

      .cls-4 {
        fill: none;
        opacity: .54;
        stroke: #00b6ff;
        stroke-linecap: round;
        stroke-linejoin: round;
        stroke-width: 90px;
      }
    </style>
  </defs>
  <g>
    <path class="cls-2" d="m200.39,368c-1.75,0-3.51-.06-5.23-.17-.49,0-.97.01-1.46.01-40.11,0-63.02-23.91-68.11-47.82-7.14-12.48-10.14-27.41-8.91-44.38,2.68-36.9,25.03-56.09,39.82-68.79,9.86-8.47,16.38-14.06,21.19-26.05,3.72-9.27-3.07-36.64-13.98-56.31h0c-4.08-7.28-6.23-15.55-6.23-23.91,0-27.02,21.98-49,49-49,16.35,0,31.6,8.21,40.66,21.67l.13-.07,2.17,3.83.23.43c2.47,4.5,11.13,20.99,17.93,42.5,11.73,37.09,12.08,69.85,1.03,97.37-5.11,12.72-11.52,24.09-19.54,34.6,14.65,8.2,24.84,20.65,29.62,36.28,8.46,29.75-13.47,60.28-38.62,71.54l-.2.08c-14.33,5.52-27.26,8.21-39.51,8.21h0Z"/>
    <path class="cls-3" d="m206.48,55.57c16.81,0,31.45,9.22,39.18,22.88h0c.04.08.11.19.18.32.1.18.21.37.31.55,2.29,4.17,10.9,20.51,17.64,41.82,11.44,36.19,11.82,68.04,1.13,94.67-6.27,15.62-14.07,27.74-21.98,37.42,14.78,7.01,26.67,18.88,31.94,36.12,7.71,27.14-12.09,55.82-36.43,66.72-12.2,4.7-25.01,7.94-38.07,7.94-1.71,0-3.42-.06-5.13-.17-.52,0-1.04.01-1.56.01-35.71,0-59.4-20.54-64.32-45.27-5.84-9.95-10.08-23.8-8.71-42.65,2.56-35.24,24.15-53.78,38.43-66.05,9.94-8.53,17.12-14.7,22.3-27.6,4.68-11.67-3.72-40.85-14.19-59.74l.08.15h0c-3.7-6.54-5.82-14.08-5.82-22.13,0-24.85,20.15-45,45-45m0-8c-29.22,0-53,23.78-53,53,0,9.04,2.33,17.98,6.74,25.85h0c11.24,20.29,16.72,45.52,13.76,52.89-4.45,11.08-10.33,16.13-20.09,24.51-14.36,12.33-38.4,32.97-41.2,71.54-1.27,17.54,1.79,33.05,9.12,46.12,3.11,13.91,11.38,26.45,23.39,35.43,13.08,9.78,29.85,14.95,48.5,14.95.45,0,.9,0,1.36,0,1.76.11,3.55.17,5.33.17,12.75,0,26.15-2.77,40.95-8.47l.2-.08.2-.09c13.71-6.14,26.05-17.26,33.86-30.51,8.7-14.75,11.18-30.98,7-45.7l-.02-.08-.02-.08c-4.66-15.22-14.12-27.61-27.61-36.27,7.02-9.79,12.75-20.32,17.42-31.95,11.4-28.4,11.08-62.07-.93-100.07-6.9-21.82-15.69-38.57-18.24-43.23-.09-.16-.18-.32-.27-.48l-.07-.13-.21-.37-3.94-6.98-.54.31c-9.96-12.66-25.31-20.27-41.67-20.27h0Z"/>
  </g>
  <g>
    <path d="m274.89,289.34c7.71,27.14-12.09,55.82-36.43,66.72-13.79,5.31-28.38,8.76-43.2,7.77-66.41,1.1-92.41-68.28-35.7-105.97,37.6-22.66,100.97-15.47,115.33,31.48Z"/>
    <g>
      <path class="cls-4" d="m206.48,100.57s32.85,58.19,16.68,98.48c-18.63,46.41-55.22,47.15-57.61,80.14-1.94,26.73,15.39,25.55,35.28,22.82"/>
      <circle class="cls-1" cx="206.48" cy="100.57" r="45"/>
      <path class="cls-3" d="m205.44,130.96c-13.15.41-25.29-9.35-28.37-22.01-.52-4.57,6.25-5.82,7.37-1.33,5.85,20.95,36.11,20.86,43.73,1.31.76-5.79,8.74-5.12,7.65.76-3.87,13.01-16.94,21.75-30.37,21.26Z"/>
    </g>
  </g>
</svg>