<?xml version="1.0" encoding="UTF-8"?>
<svg id="Worm" xmlns="http://www.w3.org/2000/svg" viewBox="0 0 400 400">
  <defs>
    <style>
      .cls-1 {
        fill: #00b6ff;
      }

      .cls-2 {
        fill: #fff;
      }

      .cls-3 {
        fill: #2d2c2c;
      }

      .cls-4 {
        fill: none;
        opacity: .54;
        stroke: #00b6ff;
        stroke-linecap: round;
        stroke-linejoin: round;
        stroke-width: 90px;
      }
    </style>
  </defs>
  <g>
    <path class="cls-2" d="m200.39,368c-1.75,0-3.51-.06-5.23-.17-.49,0-.97.01-1.46.01-27.69,0-51.01-12.19-62.39-32.62-9.52-17.09-9.06-37.58,1.15-55.16-2.92-11.28-3.83-23.78-2.78-38.16,1.64-22.64,8.48-39.65,13.97-53.32,5.16-12.83,9.22-22.96,10.18-39.58.69-11.96-2.16-18.81-2.75-20.08-.34-.56-.67-1.12-.99-1.69l-.14-.24c-.34-.61-.66-1.23-.97-1.85l-.16-.31c-.27-.56-.54-1.14-.79-1.72,0,0-.17-.37-.22-.49-.21-.49-.42-1.01-.62-1.53,0,0-.22-.54-.28-.71-.14-.39-.28-.78-.41-1.17l-.12-.34c-.09-.26-.18-.52-.26-.79-.09-.29-.18-.6-.27-.9l-.1-.35c-.1-.36-.21-.71-.3-1.07-.06-.23-.11-.45-.16-.67l-.06-.26c-.12-.48-.23-.97-.33-1.45-.04-.19-.15-.79-.15-.79-.1-.54-.2-1.07-.29-1.61l-.1-.7c-.08-.58-.16-1.15-.22-1.73l-.06-.66c-.06-.59-.1-1.19-.13-1.78-.01-.21-.02-.43-.03-.65-.03-.59-.04-1.18-.04-1.78,0-.17,0-.28,0-.39,0-.1,0-.21,0-.31,0-.57.02-1.1.04-1.64,0,0,.03-.67.04-.94.03-.43.06-.85.1-1.27.03-.41.07-.83.12-1.25.02-.2.1-.78.1-.78.07-.56.14-1.12.23-1.68l.03-.18c.71-4.35,2.04-8.66,3.95-12.73l.11-.24c.2-.41.39-.8.59-1.19l.17-.34c.11-.22.22-.44.34-.66.11-.2.21-.38.32-.56l.13-.24c.25-.44.5-.89.77-1.33.05-.09.26-.41.26-.41.33-.54.68-1.09,1.05-1.63l.1-.15c1.71-2.53,3.7-4.94,5.89-7.13l.09-.09c.49-.48,1.02-.99,1.57-1.49.1-.09.45-.39.45-.39.42-.38.84-.75,1.28-1.11.34-.28.7-.56,1.05-.83l.33-.26c.14-.11.29-.23.44-.34,2.6-1.96,5.41-3.67,8.35-5.07l.34-.18.09-.02c.6-.28,1.21-.55,1.82-.8.12-.05.5-.2.5-.2.57-.23,1.14-.45,1.71-.66.21-.08.42-.15.63-.22l.41-.14c.4-.14.81-.27,1.21-.4.32-.1.65-.19.97-.28l.55-.15c.25-.07.51-.14.77-.21.53-.13,1.06-.25,1.6-.37,0,0,.55-.13.71-.16.71-.14,1.41-.27,2.12-.38l.24-.04c2.43-.37,4.92-.56,7.39-.56.82,0,1.63.02,2.45.06.22.01.44.03.66.04l.49.04c.39.03.78.05,1.17.09.49.05.99.11,1.48.17,0,0,.64.08.81.1.64.09,1.27.2,1.9.32l.37.07c.69.13,1.37.28,2.06.44l.19.04c.73.18,1.42.36,2.11.56l.19.05c.69.2,1.35.41,2.01.64l.3.1c.61.21,1.21.44,1.81.67l.49.19c.52.21,1.04.43,1.55.67.23.1.48.21.72.32.42.2.84.4,1.26.61.33.17.66.33.98.5.32.17.63.34.95.52.41.23.83.47,1.24.71.23.14.44.27.65.4.49.3.97.61,1.46.93l.41.28c.52.35,1.05.73,1.58,1.13l.16.12c.63.47,1.18.91,1.73,1.36l.1.09c.59.49,1.14.97,1.68,1.46l.13.12c.53.49,1.04.97,1.55,1.48l.25.26c.45.46.9.92,1.34,1.4.11.12.48.54.48.54.39.44.72.81,1.04,1.2.25.3.5.62.75.93l.31.39c.13.17.27.34.4.51.56.74,1.12,1.53,1.66,2.34.28.42.61.94,1,1.56l.11.18c5.86,9.5,19.25,36.02,16.91,76.72-1.88,32.63-10.66,54.51-17.08,70.48-3.26,8.11-5.39,13.56-6.45,18.77,25.4,5.9,43.73,21.87,50.59,44.28,8.46,29.75-13.47,60.27-38.62,71.54l-.2.08c-14.33,5.52-27.26,8.21-39.51,8.21h0Z"/>
    <path class="cls-3" d="m192.8,58.31c.75,0,1.5.02,2.25.06.29.01.58.04.87.06.42.03.84.06,1.27.1.49.05.97.11,1.45.17.22.03.44.05.66.08.59.08,1.17.18,1.75.29.11.02.23.04.34.06.63.12,1.26.26,1.89.41.07.02.13.03.2.05.64.16,1.28.33,1.91.51.06.02.12.03.18.05.62.18,1.23.38,1.83.58.09.03.18.06.27.09.56.2,1.12.4,1.67.62.15.06.29.11.44.17.48.2.96.4,1.43.61.22.1.44.2.66.3.39.18.77.37,1.16.56.3.15.61.3.9.46.29.15.58.31.86.47.38.21.77.43,1.14.66.2.12.39.24.59.36.45.28.9.56,1.34.86.12.08.24.16.36.25.5.34.99.69,1.47,1.05.07.05.14.1.2.15.52.39,1.03.79,1.53,1.2.04.03.08.07.12.1.51.42,1.02.86,1.51,1.31.04.04.09.08.13.12.48.44.95.89,1.41,1.35.08.08.16.16.23.24.42.42.83.85,1.23,1.29.15.16.29.33.44.5.32.36.64.72.95,1.1.27.33.54.67.8,1.01.17.22.35.44.53.67.53.7,1.04,1.42,1.53,2.15.26.39.57.87.93,1.45.03.06.07.11.1.16,5.07,8.23,18.63,34.26,16.32,74.4-1.84,31.98-10.49,53.51-16.8,69.22-4.17,10.38-6.51,16.47-7.28,23.39,23.32,4.37,43.87,18.02,51.31,42.31,7.71,27.14-12.09,55.82-36.43,66.72-12.2,4.7-25.01,7.94-38.07,7.94-1.71,0-3.42-.06-5.13-.17-.53,0-1.04.01-1.56.01-53.43,0-79.96-45.98-56.94-83.17-2.93-10.47-4.23-22.81-3.1-38.47,1.6-22.01,8.3-38.7,13.69-52.11,5.29-13.17,9.47-23.57,10.46-40.84.76-13.29-2.54-20.83-3.21-22.21-.01-.02-.03-.04-.04-.07-.34-.55-.67-1.11-.99-1.68-.04-.08-.09-.15-.13-.23-.31-.56-.6-1.12-.88-1.69-.05-.09-.1-.19-.14-.28-.26-.52-.5-1.05-.73-1.59-.06-.15-.13-.29-.2-.44-.2-.46-.38-.93-.57-1.41-.09-.22-.18-.44-.26-.66-.15-.4-.28-.8-.42-1.2-.1-.3-.21-.6-.31-.91-.1-.33-.2-.67-.3-1-.11-.38-.22-.76-.32-1.14-.07-.28-.14-.56-.21-.84-.11-.44-.21-.88-.31-1.33-.05-.24-.09-.48-.14-.73-.09-.49-.19-.98-.26-1.48-.03-.21-.06-.43-.09-.65-.08-.53-.14-1.05-.2-1.58-.02-.2-.04-.4-.06-.6-.05-.55-.09-1.1-.12-1.64-.01-.2-.02-.4-.03-.6-.02-.54-.04-1.09-.04-1.63,0-.12,0-.24,0-.36,0-.11,0-.21,0-.32,0-.49.02-.98.04-1.47.01-.29.02-.58.04-.87.02-.38.05-.77.09-1.15.03-.39.06-.77.11-1.16.03-.24.06-.47.09-.71.07-.52.13-1.03.21-1.54,0-.03.01-.06.02-.09.68-4.14,1.92-8.09,3.64-11.76.04-.08.07-.16.11-.24.19-.4.39-.79.6-1.19.14-.27.27-.54.42-.81.13-.25.27-.49.41-.73.23-.41.46-.82.7-1.22.08-.12.16-.25.23-.37.31-.51.63-1.01.97-1.51.02-.03.05-.07.07-.1,1.58-2.33,3.39-4.54,5.43-6.58.02-.02.03-.03.05-.05.48-.48.97-.95,1.47-1.4.14-.12.28-.24.41-.36.39-.34.77-.68,1.17-1.01.36-.3.73-.59,1.1-.87.19-.15.37-.3.56-.44,2.41-1.81,5-3.39,7.75-4.7,0,0,0,0,0,0,.66-.31,1.32-.61,2-.89.15-.06.31-.12.46-.18.52-.21,1.04-.42,1.57-.61.27-.1.54-.18.81-.27.42-.14.83-.29,1.25-.42.37-.11.75-.21,1.12-.32.32-.09.65-.19.97-.27.49-.12.98-.23,1.47-.34.22-.05.44-.1.66-.15.65-.13,1.3-.24,1.95-.35.07-.01.14-.03.21-.04,2.26-.35,4.53-.52,6.79-.52m0-8c-2.67,0-5.36.2-8,.61-.1.02-.21.03-.31.05-.81.13-1.54.26-2.23.4-.2.04-.4.09-.61.13l-.16.04c-.6.13-1.17.26-1.74.4-.29.07-.59.16-.88.24l-.26.07-.26.07c-.36.1-.72.2-1.07.31-.43.13-.86.28-1.29.42l-.19.06-.23.08c-.24.08-.49.16-.73.25-.65.24-1.27.48-1.85.71l-.08.03c-.16.06-.31.12-.47.19-.75.31-1.5.65-2.24,1l-.43.19-.12.07c-3.06,1.49-5.98,3.28-8.7,5.33-.17.12-.34.26-.51.4l-.14.11-.15.11c-.39.3-.78.61-1.16.93-.46.38-.92.78-1.37,1.18l-.1.08c-.13.12-.27.23-.4.35-.55.5-1.1,1.03-1.68,1.6-.04.03-.07.07-.11.1-2.36,2.36-4.51,4.96-6.39,7.73l-.08.12c-.37.55-.74,1.13-1.15,1.8l-.04.06c-.08.12-.15.24-.23.37-.29.48-.56.96-.83,1.45l-.11.19c-.12.22-.25.44-.37.66-.14.26-.26.51-.39.75l-.11.21-.06.12c-.22.42-.43.84-.64,1.27-.05.11-.1.22-.15.32l.02-.03c-2.06,4.39-3.5,9.04-4.28,13.83l-.02.11c-.1.63-.18,1.24-.26,1.85l-.02.18c-.03.22-.06.43-.08.65-.05.45-.09.89-.12,1.32v.05c-.04.44-.08.89-.11,1.34-.02.33-.03.65-.04.97v.06c-.02.55-.04,1.1-.05,1.66,0,.16,0,.3,0,.44,0,.16,0,.32,0,.48,0,.61.02,1.23.05,1.86.01.24.02.47.03.71.04.63.08,1.26.15,1.93v.13c.03.19.05.38.07.58.06.58.14,1.19.24,1.86l.02.17c.03.2.06.4.09.59.09.59.2,1.17.31,1.75l.04.19c.04.22.08.45.13.67.11.53.24,1.05.36,1.57l.05.22c.06.26.12.51.19.77.11.4.22.79.33,1.18l.05.17.07.23c.09.32.18.64.28.95.09.28.18.56.28.84l.08.24.06.17c.14.42.28.83.44,1.25.07.2.15.4.23.6l.07.18c.22.55.44,1.11.67,1.66.06.15.13.29.19.43l.04.08c.33.74.59,1.32.86,1.86.05.11.11.22.16.32.37.74.71,1.39,1.05,2,.05.1.11.19.16.29.31.56.62,1.08.92,1.58.57,1.32,2.91,7.43,2.3,17.98-.92,15.96-4.68,25.33-9.89,38.31-5.6,13.93-12.56,31.26-14.25,54.52-1.03,14.16-.21,26.59,2.5,37.87-10.14,18.48-10.34,39.8-.38,57.68,12.09,21.71,36.72,34.67,65.88,34.67.45,0,.9,0,1.36,0,1.76.11,3.55.17,5.33.17,12.75,0,26.15-2.77,40.95-8.47l.2-.08.2-.09c13.71-6.14,26.05-17.26,33.86-30.51,8.7-14.75,11.18-30.98,7-45.7l-.02-.08-.02-.08c-6.93-22.64-24.79-39.08-49.58-46,1.13-3.87,2.87-8.28,5.32-14.38,6.52-16.23,15.45-38.46,17.36-71.75,2.41-41.83-11.43-69.21-17.49-79.05-.04-.06-.08-.12-.12-.19h0s-.01-.01-.01-.01c-.41-.67-.77-1.22-1.07-1.66-.59-.88-1.19-1.73-1.8-2.54-.15-.19-.3-.4-.46-.59l-.15-.18-.14-.17c-.27-.34-.54-.69-.82-1.02-.34-.41-.7-.82-1.07-1.23l-.04-.05-.13-.15c-.13-.15-.26-.3-.4-.45-.42-.46-.88-.94-1.44-1.51l-.05-.05c-.08-.08-.15-.16-.23-.24-.52-.52-1.07-1.04-1.67-1.59l-.15-.14c-.57-.51-1.17-1.03-1.79-1.55l-.14-.11c-.58-.48-1.19-.96-1.81-1.43l-.04-.03-.19-.15c-.56-.41-1.12-.82-1.74-1.24l-.08-.06-.34-.23c-.51-.34-1.02-.67-1.59-1.02-.23-.14-.45-.28-.68-.42-.46-.27-.91-.53-1.36-.78-.33-.18-.67-.37-1.01-.55-.37-.19-.72-.37-1.08-.55-.44-.22-.89-.44-1.35-.66-.27-.13-.53-.24-.79-.36-.55-.24-1.11-.49-1.68-.72-.15-.06-.28-.11-.42-.17l-.1-.04c-.67-.27-1.32-.51-1.96-.73l-.25-.09-.07-.02c-.73-.25-1.46-.48-2.16-.69l-.2-.06c-.78-.23-1.54-.43-2.26-.6l-.23-.05c-.79-.19-1.52-.35-2.23-.48-.1-.02-.22-.04-.34-.06h-.06c-.79-.16-1.45-.27-2.07-.35-.18-.03-.38-.05-.58-.08l-.18-.02h-.07c-.55-.08-1.09-.15-1.64-.2-.41-.04-.83-.07-1.26-.1h-.22s-.26-.03-.26-.03c-.26-.02-.52-.04-.78-.05-.87-.04-1.76-.07-2.64-.07h0Z"/>
  </g>
  <g>
    <path d="m274.89,289.34c7.71,27.14-12.09,55.82-36.43,66.72-13.79,5.31-28.38,8.76-43.2,7.77-66.41,1.1-92.41-68.28-35.7-105.97,37.6-22.66,100.97-15.47,115.33,31.48Z"/>
    <g>
      <path class="cls-4" d="m192.84,103.31s11.7,17.24,9.9,48.52c-2.6,45.2-21.8,60.65-24.2,93.63-1.94,26.73,5.25,33.29,22.29,56.55"/>
      <circle class="cls-1" cx="192.84" cy="103.31" r="45"/>
      <path class="cls-3" d="m191.8,133.7c-13.15.41-25.29-9.35-28.37-22.01-.52-4.57,6.25-5.82,7.37-1.33,5.85,20.95,36.11,20.86,43.73,1.31.76-5.79,8.74-5.12,7.65.76-3.87,13.01-16.94,21.75-30.37,21.26Z"/>
    </g>
  </g>
</svg>