<?xml version="1.0" encoding="UTF-8"?>
<svg id="Worm" xmlns="http://www.w3.org/2000/svg" viewBox="0 0 400 400">
  <defs>
    <style>
      .cls-1 {
        fill: #00b6ff;
      }

      .cls-2 {
        fill: #fff;
      }

      .cls-3 {
        fill: #2d2c2c;
      }

      .cls-4 {
        fill: none;
        opacity: .54;
        stroke: #00b6ff;
        stroke-linecap: round;
        stroke-linejoin: round;
        stroke-width: 90px;
      }
    </style>
  </defs>
  <g>
    <path class="cls-2" d="m200.39,368c-1.75,0-3.51-.06-5.23-.17-.49,0-.97.01-1.46.01-32.73,0-59.02-17.05-66.99-43.43-7.45-24.68,3.37-50.61,28.29-68.27-13.8-5.79-25.78-12.22-35.69-19.17-40.03-28.05-41.68-60.99-39.11-78.13,3.12-20.73,14.67-42.19,35.32-65.59,12.43-14.09,24.11-24.23,25.4-25.34.09-.08.19-.16.28-.23.44-.37.81-.67,1.19-.97.26-.21.53-.42.79-.62.37-.29.75-.56,1.13-.83.33-.24.59-.43.86-.61.36-.25.73-.49,1.09-.72l.14-.09c.27-.18.54-.35.81-.52.29-.18.59-.35.89-.53l.33-.19c.29-.17.58-.34.87-.5.28-.15.55-.29.83-.44l.38-.2c.31-.16.62-.32.93-.48.26-.13.53-.25.79-.37l.44-.2c.31-.14.62-.29.94-.42.28-.12.55-.23.83-.34l.43-.17c.32-.13.63-.26.95-.37.29-.11.59-.21.89-.31l.46-.16c.3-.11.61-.21.92-.31.31-.1.62-.19.94-.28l.48-.14c.29-.08.58-.17.88-.25.34-.09.67-.17,1-.24l.43-.1c.3-.07.61-.14.92-.21.33-.07.67-.13,1-.19l.32-.06c.36-.07.71-.13,1.07-.19.3-.05.6-.09.9-.13l.2-.03c.44-.06.88-.12,1.31-.17.3-.03.6-.06.9-.08h.15c.46-.05.93-.09,1.4-.12.33-.02.67-.03,1.01-.05.48-.02.95-.03,1.43-.04.22,0,.34-.01.46-.01.15,0,.59.01.59.01.45,0,.89.02,1.33.03.4.02.8.04,1.21.06.37.02.74.05,1.11.08.46.04.93.08,1.4.14.29.03.58.07.87.11.53.07,1.06.15,1.59.23l.64.11c.59.11,1.17.22,1.74.34l.51.12c.61.14,1.22.29,1.81.45l.46.13c.61.17,1.2.34,1.79.53.12.04.56.19.56.19.55.19,1.1.37,1.64.58.18.07.75.3.75.3.47.18.93.37,1.39.56.26.11.53.23.79.35l.42.19c.3.14.6.27.89.42.38.19.76.38,1.14.58l.33.17c.19.1.39.2.58.31.48.26.96.55,1.45.83l.56.33c.51.31,1.01.64,1.52.97l.46.3c.49.33.99.69,1.48,1.05l.46.33c.46.35.91.71,1.36,1.07,0,0,.39.31.54.44.4.33.79.68,1.19,1.03.22.2.45.4.67.6.34.31.67.63,1,.95.27.26.54.53.81.81.28.28.55.57.81.85.3.33.61.66.91,1l.09.1c.1.11.2.22.3.33.07.09.15.18.23.28.37.44.67.81.98,1.19.2.26.41.51.61.77.29.38.57.76.84,1.15l.07.1c.18.25.36.49.53.74.26.37.5.74.74,1.12l.05.08c.18.28.37.56.54.85.2.33.4.66.59,1l.16.28c.16.27.31.54.46.81.16.29.3.57.45.85l.18.35c.16.31.33.63.48.94.13.27.25.54.38.81l.21.46c.14.3.28.61.41.92.12.27.23.54.33.82l.19.48c.12.3.24.6.36.91.12.31.22.63.33.95l.13.38c.11.31.22.62.31.94.1.31.2.64.29.98l.12.42c.09.3.17.6.25.9.09.35.17.69.25,1.02l.07.31c.08.34.16.68.23,1.02.07.31.12.62.18.94l.07.38c.07.36.13.71.19,1.07.05.29.09.58.12.87l.03.23c.06.46.12.89.17,1.33.03.31.06.61.09.92v.12c.05.47.09.94.12,1.41.02.33.03.66.05,1,.02.48.03.96.04,1.45,0,.21.01.34.01.47,0,.15,0,.29,0,.43v.13c0,.45-.02.9-.04,1.35-.01.39-.03.78-.06,1.18-.03.39-.05.76-.09,1.13-.04.44-.08.9-.13,1.36-.04.31-.08.6-.11.89-.07.51-.14,1.04-.23,1.56l-.12.66c-.1.58-.21,1.15-.34,1.73l-.11.5c-.14.61-.29,1.21-.45,1.81l-.13.46c-.17.61-.35,1.21-.54,1.81l-.18.53c-.19.57-.38,1.13-.59,1.67-.06.17-.35.88-.35.88-.17.42-.34.85-.52,1.27-.11.25-.22.51-.34.77l-.23.51c-.12.27-.25.55-.38.81-.2.42-.42.83-.64,1.25l-.15.29c-.09.18-.18.35-.28.53-.27.5-.57,1-.86,1.5l-.29.5c-.33.54-.67,1.06-1.02,1.59l-.26.39c-.35.52-.72,1.03-1.09,1.53l-.3.42c-.36.47-.72.93-1.09,1.38,0,0-.32.39-.43.53-.33.4-.68.8-1.03,1.19-.19.21-.38.43-.58.65-.32.34-.63.67-.96,1-.26.27-.52.53-.79.8-.28.28-.57.55-.86.82-.32.3-.65.6-.99.9,0,0-.3.27-.4.36-6.52,5.66-13.84,13.26-19.56,20.24,4.63,2.29,11.15,5.12,19.76,8.03,28.91,9.76,49.62,29.35,58.33,55.17,4.35,12.9,5.6,26.75,3.72,41.2,5.21,6.24,9.09,13.44,11.53,21.42,8.46,29.75-13.47,60.28-38.62,71.54l-.2.08c-14.33,5.52-27.26,8.21-39.51,8.21h0Z"/>
    <path class="cls-3" d="m172.88,60.04c.18,0,.36.01.55.01.41,0,.81.01,1.22.03.37.01.74.03,1.11.06.34.02.68.05,1.01.08.43.04.86.08,1.29.13.26.03.53.07.79.1.49.06.98.13,1.46.21.2.03.4.07.6.11.53.1,1.07.2,1.59.31.16.03.31.07.47.11.56.13,1.11.26,1.66.41.15.04.29.08.44.12.55.15,1.09.31,1.64.49.17.06.34.12.51.17.5.17,1.01.34,1.5.53.23.09.46.18.7.27.43.17.85.34,1.27.52.31.14.63.28.94.42.33.15.66.3.99.46.39.19.78.4,1.17.6.24.12.48.25.71.37.45.25.89.51,1.34.77.17.1.34.2.51.3.47.29.94.59,1.4.9.14.09.28.18.42.27.46.31.91.64,1.36.97.14.1.28.2.42.31.42.32.84.65,1.25.98.17.13.33.27.5.41.37.31.73.62,1.09.94.21.18.41.37.62.56.31.28.61.57.91.87.25.25.5.49.75.74.25.26.5.52.74.78.28.31.56.62.84.93.12.13.24.26.36.39.09.11.17.22.26.32.29.34.57.69.85,1.04.19.24.38.48.56.72.26.35.52.7.77,1.05.19.26.37.52.55.78.23.34.45.68.68,1.02.19.29.37.57.55.86.2.32.39.65.58.98.18.31.37.63.54.95.17.31.33.63.5.95.17.34.35.67.52,1.01.15.31.3.64.44.95.16.35.32.69.47,1.04.14.33.27.66.4.99.14.35.28.69.41,1.04.13.34.24.69.36,1.04.12.34.24.68.35,1.03.11.36.22.72.32,1.08.1.34.2.68.29,1.02.1.36.18.73.27,1.09.08.35.17.7.24,1.05.07.35.14.71.2,1.07.07.37.14.75.2,1.12.05.34.1.67.14,1.01.06.4.11.81.15,1.21.03.32.06.64.09.96.04.43.07.86.1,1.29.02.31.03.61.04.92.02.44.03.88.03,1.32,0,.15.01.29.01.44,0,.18-.01.35-.01.52,0,.41-.02.82-.03,1.23-.01.36-.03.73-.05,1.09-.02.34-.05.69-.08,1.03-.04.42-.08.85-.12,1.27-.03.27-.07.53-.1.8-.06.48-.13.97-.21,1.45-.03.2-.07.4-.11.6-.1.53-.2,1.06-.31,1.59-.03.15-.07.31-.11.46-.13.56-.26,1.12-.41,1.67-.04.14-.08.28-.12.42-.16.56-.32,1.11-.49,1.65-.05.16-.11.33-.17.49-.17.51-.35,1.02-.53,1.53-.09.23-.18.45-.27.68-.17.43-.34.86-.52,1.29-.14.32-.28.63-.43.95-.15.33-.3.66-.45.98-.2.41-.41.81-.62,1.21-.12.23-.23.46-.36.68-.25.47-.52.93-.8,1.39-.09.15-.18.31-.27.46-.3.49-.61.97-.93,1.45-.08.12-.16.25-.24.37-.32.47-.66.94-1,1.4-.09.13-.18.26-.28.38-.32.43-.66.85-1,1.27-.13.16-.25.32-.38.47-.31.37-.63.74-.95,1.1-.18.2-.36.4-.54.6-.29.31-.58.62-.88.92-.24.25-.48.49-.73.73-.26.25-.52.5-.79.75-.3.28-.6.56-.91.83-.13.11-.24.23-.37.34-8.33,7.23-17.21,16.84-23.07,24.58,5.51,3.04,13.55,6.77,24.62,10.5,27.7,9.35,47.52,28.05,55.82,52.66,4.36,12.92,5.43,26.74,3.3,41.16,5.24,5.89,9.36,12.99,11.92,21.35,7.71,27.14-12.09,55.82-36.43,66.72-12.2,4.7-25.01,7.94-38.07,7.94-1.71,0-3.42-.06-5.13-.17-.52,0-1.04.01-1.56.01-65.26,0-90.4-68.59-34.14-105.98,1.42-.86,2.89-1.67,4.38-2.44-13.22-5.09-28.88-12.29-42.34-21.72-38.26-26.81-39.89-58.04-37.45-74.26,3-19.95,14.24-40.73,34.36-63.54,12.25-13.88,23.74-23.87,25.01-24.96.11-.09.22-.18.33-.27.34-.29.68-.56,1.03-.84.24-.19.48-.38.73-.57.34-.26.69-.51,1.04-.76.26-.19.52-.38.79-.56.33-.23.67-.45,1-.66.29-.19.58-.38.88-.56.32-.2.64-.38.96-.57.32-.19.64-.38.96-.55.31-.17.62-.33.93-.49.34-.18.69-.36,1.03-.53.31-.15.62-.29.93-.43.35-.16.71-.33,1.06-.48.32-.14.65-.26.98-.39.35-.14.7-.29,1.06-.42.34-.13.69-.24,1.04-.36.34-.12.69-.24,1.04-.35.36-.11.72-.21,1.08-.32.34-.1.68-.2,1.03-.29.36-.1.73-.18,1.09-.26.35-.08.7-.17,1.06-.24.35-.07.71-.14,1.07-.2.37-.07.75-.14,1.12-.2.34-.05.68-.1,1.02-.14.4-.05.8-.11,1.21-.15.32-.03.64-.06.96-.09.43-.04.86-.07,1.28-.1.31-.02.62-.03.93-.04.44-.02.88-.03,1.31-.03.14,0,.28-.01.43-.01m0-8c-.17,0-.35,0-.52.01h.01c-.51,0-1.03.02-1.54.04-.37.01-.73.03-1.09.05-.51.03-1.01.07-1.51.11h-.12c-.34.04-.67.07-1,.11-.48.05-.95.12-1.42.18l-.19.03c-.34.05-.67.09-1.01.15-.39.06-.78.13-1.18.21l-.15.03-.2.04c-.35.07-.71.13-1.06.2-.35.07-.7.16-1.04.24l-.2.05-.21.05c-.36.08-.72.17-1.07.26-.33.09-.66.18-.99.28l-.23.07-.23.06c-.35.1-.7.2-1.05.31-.33.1-.66.22-.99.33l-.23.08-.23.08c-.33.11-.67.23-.99.35-.34.13-.69.27-1.03.4l-.22.09-.23.09c-.31.12-.62.25-.92.38-.35.15-.7.31-1.05.47l-.2.09-.22.1c-.3.13-.59.27-.88.41-.34.17-.68.34-1.02.52l-.19.1-.21.11c-.3.15-.6.31-.89.47-.33.18-.65.37-.97.55l-.17.1-.14.08c-.33.19-.66.39-.99.59-.3.19-.6.38-.9.57l-.14.09c-.39.26-.79.51-1.18.78-.28.19-.56.39-.83.59l-.1.07c-.41.29-.82.59-1.22.9-.28.22-.56.44-.85.66-.41.32-.8.64-1.19.97-.16.13-.28.23-.41.34-1.32,1.13-13.18,11.45-25.79,25.73-21.18,24-33.04,46.12-36.28,67.64-2.71,18.06-1.02,52.72,40.77,82,8.6,6.03,18.7,11.67,30.16,16.84-22.41,18.48-31.68,44-24.29,68.47,4.03,13.35,12.59,24.78,24.76,33.07,12.7,8.64,28.62,13.21,46.06,13.21.45,0,.9,0,1.36,0,1.76.11,3.55.17,5.33.17,12.75,0,26.15-2.77,40.95-8.47l.2-.08.2-.09c13.71-6.14,26.05-17.26,33.86-30.51,8.7-14.75,11.18-30.98,7-45.7l-.02-.08-.02-.08c-2.42-7.92-6.18-15.12-11.18-21.45,1.64-14.44.27-28.31-4.11-41.27-9.12-27.03-30.72-47.52-60.84-57.68-5.84-1.97-10.69-3.9-14.61-5.64,4.93-5.63,10.6-11.34,15.75-15.82.13-.11.26-.24.4-.36l.05-.04c.34-.3.7-.63,1.05-.96.31-.29.62-.58.92-.88.29-.29.58-.58.86-.86.35-.35.69-.71,1.03-1.08.21-.23.41-.46.62-.68.4-.45.78-.88,1.14-1.32.12-.15.24-.29.36-.44l.1-.13c.46-.57.84-1.05,1.17-1.5.09-.12.17-.24.26-.35l.07-.1c.45-.62.83-1.14,1.17-1.64.08-.11.15-.23.23-.34l.05-.08c.28-.42.69-1.04,1.1-1.71.08-.14.17-.28.25-.42l.07-.12c.3-.51.62-1.05.94-1.64.1-.19.21-.4.32-.61l.1-.19.04-.08c.23-.45.47-.9.69-1.35.15-.3.29-.62.44-.93l.1-.21.1-.22c.14-.3.27-.6.4-.9.21-.48.4-.97.6-1.47h0s.02-.05.02-.05l.08-.19c.08-.2.16-.4.24-.61.24-.64.45-1.27.63-1.8l.04-.12c.05-.15.1-.3.15-.45.18-.57.37-1.19.58-1.95l.03-.1c.04-.13.08-.27.11-.4.16-.59.31-1.22.48-1.96l.03-.13c.03-.14.07-.28.1-.42.12-.55.24-1.14.36-1.87l.03-.14c.03-.18.07-.37.1-.55.09-.57.18-1.14.25-1.71.04-.34.08-.63.12-.93.06-.51.11-1.01.15-1.51.03-.39.07-.8.09-1.2.03-.43.05-.86.06-1.29.02-.48.03-.96.04-1.44v-.05c0-.19.01-.38.01-.57,0-.18,0-.35-.01-.53h0c0-.5-.02-1.02-.04-1.54-.01-.36-.03-.72-.05-1.08-.03-.51-.07-1.01-.11-1.52v-.13c-.04-.33-.07-.66-.11-.99-.05-.48-.12-.96-.18-1.43l-.02-.15c-.05-.34-.09-.69-.15-1.03-.07-.41-.14-.81-.21-1.21l-.02-.11-.03-.17c-.07-.36-.13-.72-.21-1.08-.07-.34-.15-.69-.24-1.04l-.05-.2-.05-.23c-.08-.36-.17-.71-.26-1.06-.09-.33-.18-.65-.27-.97l-.07-.23-.06-.22c-.1-.36-.21-.71-.32-1.06-.1-.33-.22-.65-.33-.98l-.08-.23-.08-.23c-.11-.34-.23-.67-.35-1.01-.13-.34-.26-.68-.4-1.02l-.08-.21-.09-.22c-.13-.32-.25-.63-.39-.95-.15-.35-.31-.69-.46-1.03l-.09-.2-.09-.2c-.14-.31-.28-.62-.43-.92-.16-.33-.33-.66-.5-.99l-.1-.2-.1-.19c-.16-.31-.32-.62-.49-.93-.17-.32-.36-.63-.54-.94l-.1-.18-.08-.14c-.2-.34-.4-.68-.6-1.01-.17-.28-.36-.57-.55-.85l-.1-.15c-.26-.4-.52-.81-.8-1.2-.19-.27-.38-.54-.57-.81l-.07-.1c-.3-.42-.6-.83-.91-1.23-.22-.28-.44-.56-.66-.84-.33-.41-.65-.8-.98-1.19-.13-.16-.23-.29-.34-.41-.12-.15-.25-.29-.38-.43l-.05-.05c-.31-.35-.64-.72-.98-1.08-.28-.3-.57-.61-.87-.91-.3-.3-.59-.6-.89-.88-.35-.34-.7-.68-1.07-1.02-.24-.22-.49-.44-.73-.66-.42-.38-.85-.75-1.28-1.11-.16-.13-.32-.26-.48-.39l-.11-.09c-.48-.39-.97-.78-1.47-1.15-.13-.1-.25-.19-.38-.28l-.12-.09c-.6-.44-1.11-.81-1.6-1.14-.12-.08-.25-.16-.37-.25l-.11-.07c-.65-.43-1.16-.76-1.66-1.06-.14-.09-.3-.18-.45-.27l-.14-.08c-.53-.32-1.06-.62-1.59-.91-.21-.11-.42-.22-.64-.34l-.19-.1-.06-.03c-.44-.23-.89-.46-1.34-.68-.31-.15-.64-.3-.96-.45l-.19-.09-.21-.1c-.3-.14-.6-.28-.91-.41-.49-.21-.99-.41-1.49-.61l-.21-.08c-.21-.08-.41-.16-.62-.24-.63-.24-1.25-.45-1.76-.62l-.14-.05c-.16-.05-.31-.11-.47-.16-.57-.18-1.18-.37-1.92-.58l-.12-.03c-.13-.04-.26-.08-.4-.11-.59-.16-1.21-.31-1.96-.48l-.13-.03c-.14-.03-.28-.07-.42-.1-.57-.13-1.17-.24-1.88-.37l-.14-.02c-.19-.03-.37-.07-.56-.1-.57-.1-1.15-.18-1.72-.25-.3-.04-.61-.08-.92-.12-.51-.06-1.02-.11-1.52-.15-.39-.03-.78-.06-1.18-.09-.44-.03-.88-.05-1.31-.07-.47-.02-.95-.03-1.43-.04h-.06c-.19,0-.39-.01-.58-.01h0Z"/>
  </g>
  <g>
    <path d="m274.89,289.34c7.71,27.14-12.09,55.82-36.43,66.72-13.79,5.31-28.38,8.76-43.2,7.77-66.41,1.1-92.41-68.28-35.7-105.97,37.6-22.66,100.97-15.47,115.33,31.48Z"/>
    <g>
      <path class="cls-4" d="m172.88,105.04s-40.26,34.65-44.23,61.08c-3.55,23.63,33.34,41.41,60.8,50.68,39.77,13.43,35.01,50.25,11.37,85.2"/>
      <circle class="cls-1" cx="172.88" cy="105.04" r="45"/>
      <path class="cls-3" d="m171.85,135.43c-13.15.41-25.29-9.35-28.37-22.01-.52-4.57,6.25-5.82,7.37-1.33,5.85,20.95,36.11,20.86,43.73,1.31.76-5.79,8.74-5.12,7.65.76-3.87,13.01-16.94,21.75-30.37,21.26Z"/>
    </g>
  </g>
</svg>