<?xml version="1.0" encoding="UTF-8"?>
<svg id="Worm" xmlns="http://www.w3.org/2000/svg" viewBox="0 0 400 400">
  <defs>
    <style>
      .cls-1 {
        fill: #00b6ff;
      }

      .cls-2 {
        fill: #fff;
      }

      .cls-3 {
        fill: #2d2c2c;
      }

      .cls-4 {
        fill: none;
        opacity: .54;
        stroke: #00b6ff;
        stroke-linecap: round;
        stroke-linejoin: round;
        stroke-width: 90px;
      }
    </style>
  </defs>
  <g>
    <path class="cls-2" d="m200.39,368c-1.75,0-3.51-.06-5.23-.17-.49,0-.97.01-1.46.01-28.85,0-52.59-12.98-63.5-34.72-9.16-18.25-7.29-39.47,4.93-57.25-3.65-7.04-6.35-14.12-8.23-21.59-7.37-29.36-.1-55.11,5.2-73.9,1.39-4.94,3.98-14.12,3.96-16.77-.15-14.54-9.43-33.18-11.91-37.38-1.29-2.11-2.46-4.41-3.44-6.78l-.16-.39c-.24-.61-.48-1.21-.7-1.82-.06-.17-.26-.76-.26-.76-.18-.54-.34-1-.48-1.47-.09-.28-.17-.58-.25-.87l-.13-.47c-.09-.31-.17-.62-.25-.93-.12-.47-.23-.95-.33-1.43,0,0-.15-.69-.19-.87-.13-.62-.24-1.27-.34-1.91l-.07-.41c-.62-4.07-.72-8.2-.31-12.29.05-.51.12-1.02.19-1.54,0,0,.08-.61.1-.75.56-3.81,1.58-7.57,3.04-11.17l.08-.19c.23-.57.5-1.18.77-1.78l.19-.42c.24-.51.48-1,.73-1.48,0,0,.29-.57.39-.76.2-.37.4-.73.61-1.1.2-.36.41-.72.62-1.07.13-.22.26-.42.39-.63l.08-.12c.28-.45.57-.9.86-1.35l.29-.43c.37-.53.74-1.06,1.13-1.58l.1-.14c1.88-2.5,3.98-4.8,6.25-6.87l.05-.05c.55-.5,1.11-.99,1.69-1.46.12-.1.56-.44.56-.44l.17-.14c.36-.29.71-.57,1.08-.85,3.28-2.46,6.87-4.51,10.68-6.08l.38-.15c.61-.24,1.21-.48,1.82-.7.18-.06.36-.13.55-.19l.22-.07c.49-.17.97-.33,1.46-.48.31-.09.62-.18.93-.27l.48-.13c.29-.08.57-.16.86-.23.51-.13,1.03-.24,1.54-.36,0,0,.57-.13.75-.16.65-.13,1.31-.25,1.97-.35l.37-.06c2.42-.37,4.9-.56,7.37-.56,1.64,0,3.3.08,4.93.25.35.03.7.08,1.05.13l.57.07c.22.03.45.05.67.09.7.1,1.39.23,2.09.36l.19.04c2.25.44,4.52,1.06,6.73,1.83.73.26,1.39.51,2.05.77l.25.1c.59.24,1.16.49,1.72.75l.54.25c.47.22.92.45,1.37.68l.11.05c.25.13.5.25.75.38.31.17.62.34.93.51.46.26.85.48,1.23.71.18.11.66.41.66.41.48.3.96.61,1.44.92l.34.23c.56.38,1.12.78,1.67,1.19l.09.07c3.11,2.32,5.94,5.03,8.41,8.03.06.08.13.16.2.25.45.56.85,1.05,1.23,1.56,1.01,1.34,1.97,2.78,2.87,4.28,2.61,4.35,25.52,43.81,25.97,86.93.18,16.74-3.97,31.45-7.63,44.42-2.31,8.19-5.48,19.41-4.46,23.45.45,1.32,4.04,5.94,5.97,8.43,1.35,1.74,2.98,3.84,4.71,6.2,23.29,6.73,39.63,22,46.09,43.11,8.46,29.75-13.47,60.28-38.62,71.54l-.2.08c-14.33,5.52-27.26,8.21-39.51,8.21h0Z"/>
    <path class="cls-3" d="m165.97,55.73c1.51,0,3.03.08,4.53.23.42.04.83.1,1.24.15.29.04.58.07.86.11.65.1,1.29.21,1.92.33.05.01.11.02.16.03,2.12.42,4.19.98,6.19,1.69.02,0,.03.01.05.02.62.22,1.23.45,1.83.69.08.03.17.06.25.1.53.22,1.05.44,1.57.68.17.08.34.15.5.23.42.2.84.41,1.25.62.26.13.53.26.79.4.31.17.62.34.92.51.36.2.72.4,1.07.61.2.12.4.25.6.37.45.28.89.56,1.33.85.1.07.2.14.3.21.52.36,1.04.72,1.54,1.1.02.01.04.03.06.04,2.82,2.11,5.43,4.58,7.74,7.38.08.1.16.2.24.3.36.45.72.9,1.07,1.36.95,1.26,1.82,2.58,2.63,3.93,3.05,5.08,24.96,43.11,25.41,84.92.17,16.17-3.89,30.58-7.48,43.29-2.7,9.58-5.77,20.44-4.49,25.51.48,1.91,3.78,6.16,6.7,9.91,1.63,2.1,3.5,4.51,5.44,7.22,20.52,5.57,37.97,18.83,44.69,40.8,7.71,27.14-12.09,55.82-36.43,66.72-12.2,4.7-25.01,7.94-38.07,7.94-1.71,0-3.42-.06-5.13-.17-.52,0-1.04.01-1.56.01-55.61,0-82.07-49.8-53.88-87.66-3.57-6.51-6.84-14.08-9.05-22.87-7.11-28.33-.01-53.48,5.17-71.85,1.75-6.19,4.14-14.67,4.11-17.9-.16-15.43-9.83-34.9-12.47-39.37-1.22-1.99-2.29-4.09-3.19-6.27-.05-.12-.1-.25-.15-.37-.22-.55-.44-1.1-.64-1.66-.08-.24-.16-.47-.24-.71-.15-.44-.3-.89-.44-1.34-.11-.35-.2-.7-.3-1.05-.1-.34-.19-.68-.28-1.03-.12-.46-.22-.93-.32-1.39-.05-.24-.11-.48-.16-.72-.12-.59-.22-1.17-.31-1.76-.02-.13-.05-.25-.06-.38-.57-3.76-.66-7.55-.29-11.28.05-.52.12-1.04.19-1.55.03-.18.04-.37.07-.55.53-3.57,1.48-7.01,2.79-10.26.02-.05.04-.09.06-.14.23-.56.47-1.12.72-1.67.06-.13.12-.27.18-.4.21-.46.44-.9.67-1.35.12-.23.23-.46.35-.69.18-.34.37-.68.56-1.01.19-.33.37-.66.57-.98.14-.23.28-.45.42-.68.26-.42.52-.84.8-1.25.09-.13.18-.26.26-.38.34-.49.68-.98,1.04-1.46.04-.05.07-.1.11-.14,1.69-2.25,3.59-4.35,5.72-6.28,0,0,.01-.01.02-.02.51-.47,1.04-.92,1.58-1.37.17-.14.35-.27.52-.41.38-.3.75-.61,1.15-.9,3-2.25,6.29-4.14,9.81-5.59.12-.05.24-.09.35-.14.55-.22,1.11-.44,1.67-.64.24-.08.47-.16.71-.24.44-.15.89-.3,1.34-.44.35-.11.7-.2,1.06-.3.34-.09.68-.19,1.02-.28.47-.12.95-.22,1.42-.33.23-.05.45-.1.68-.15.6-.12,1.21-.23,1.82-.32.11-.02.22-.04.32-.05,2.26-.34,4.52-.51,6.78-.51m0-8c-2.66,0-5.35.2-7.99.61-.12.02-.24.04-.36.06-.83.13-1.51.25-2.16.39-.2.04-.4.09-.61.13l-.19.04c-.57.12-1.13.25-1.69.39-.32.08-.64.17-.97.26l-.23.06-.22.06c-.35.1-.69.19-1.03.3-.51.16-1.03.33-1.54.5l-.23.08c-.21.07-.43.14-.64.22-.59.21-1.22.45-1.96.75l-.04.02c-.13.05-.25.1-.38.15-4.11,1.7-8,3.92-11.55,6.58-.39.29-.78.6-1.17.91l-.17.14-.13.1c-.17.13-.33.26-.49.39-.58.48-1.18.99-1.8,1.56l-.02.02-.02.02-.02.02c-2.46,2.23-4.73,4.73-6.75,7.41l-.12.16c-.4.54-.8,1.1-1.23,1.73l-.07.1c-.08.11-.15.22-.23.33-.34.51-.65,1-.96,1.49l-.07.12c-.14.22-.28.45-.42.67-.24.39-.46.78-.68,1.17-.22.38-.44.78-.65,1.18-.12.23-.24.45-.35.68l-.08.15c-.26.52-.53,1.04-.78,1.58-.06.13-.12.26-.17.38l-.05.11c-.31.69-.59,1.33-.85,1.95l-.07.19c-1.57,3.89-2.67,7.95-3.28,12.07-.02.16-.05.35-.07.54v.1s-.03.11-.03.11c-.08.57-.15,1.15-.21,1.73-.44,4.4-.33,8.87.34,13.27.02.14.04.27.07.4v.06c.14.78.25,1.44.38,2.07.04.21.09.43.14.65l.04.2c.12.55.24,1.1.38,1.64.08.33.17.66.27.99l.06.22.07.24c.09.34.19.67.29,1.01.16.52.33,1.05.51,1.57l.07.21c.07.21.14.42.21.63.21.59.45,1.21.75,1.96l.02.05c.05.13.1.26.16.39,1.05,2.53,2.3,5,3.72,7.32,2.27,3.86,11.19,21.88,11.33,35.34-.05,2.34-2.68,11.66-3.81,15.64-5.43,19.23-12.85,45.57-5.23,75.96,1.76,7.03,4.23,13.73,7.49,20.35-11.86,18.58-13.37,40.41-3.88,59.31,5.5,10.96,14.38,20.16,25.66,26.61,11.81,6.75,26.13,10.32,41.42,10.32.45,0,.9,0,1.36,0,1.76.11,3.55.17,5.33.17,12.75,0,26.15-2.77,40.95-8.47l.2-.08.2-.09c13.71-6.14,26.05-17.26,33.86-30.51,8.7-14.75,11.18-30.98,7-45.7l-.02-.08-.02-.08c-6.74-22.05-23.55-38.08-47.49-45.39-1.46-1.96-2.82-3.71-3.97-5.2-1.59-2.04-4.45-5.73-5.31-7.27-.44-3.62,2.87-15.34,4.49-21.07,3.73-13.23,7.96-28.23,7.78-45.55-.46-43.27-22.19-81.69-26.54-88.95-.96-1.61-2-3.17-3.1-4.62-.43-.58-.88-1.13-1.25-1.6-.1-.13-.2-.25-.29-.37-2.65-3.22-5.71-6.14-9.08-8.67l-.06-.04-.02-.02-.02-.02c-.57-.43-1.17-.85-1.82-1.29l-.06-.04c-.09-.07-.19-.13-.28-.2-.52-.35-1.05-.68-1.58-1.01l-.14-.09c-.18-.12-.37-.23-.56-.34-.43-.26-.85-.5-1.27-.73-.37-.21-.72-.41-1.08-.6-.28-.15-.55-.28-.81-.42l-.13-.06c-.48-.24-.97-.49-1.47-.72-.16-.07-.31-.14-.46-.21l-.14-.06c-.66-.3-1.27-.56-1.84-.8l-.26-.1c-.78-.31-1.49-.58-2.19-.83l-.07-.02h-.04c-2.36-.84-4.8-1.51-7.25-1.98-.08-.02-.16-.03-.25-.05-.83-.16-1.53-.28-2.21-.38-.24-.04-.5-.07-.76-.1l-.24-.03-.31-.04c-.39-.05-.78-.1-1.17-.14-1.75-.18-3.54-.27-5.32-.27h0Z"/>
  </g>
  <g>
    <path d="m274.89,289.34c7.71,27.14-12.09,55.82-36.43,66.72-13.79,5.31-28.38,8.76-43.2,7.77-66.41,1.1-92.41-68.28-35.7-105.97,37.6-22.66,100.97-15.47,115.33,31.48Z"/>
    <g>
      <path class="cls-4" d="m165.98,100.73s18.73,31.03,19.06,62.35c.25,23.9-17.68,51.16-10.62,79.27,6.52,25.99,31.95,35.09,26.41,59.64"/>
      <circle class="cls-1" cx="165.98" cy="100.73" r="45"/>
      <path class="cls-3" d="m164.95,131.12c-13.15.41-25.29-9.35-28.37-22.01-.52-4.57,6.25-5.82,7.37-1.33,5.85,20.95,36.11,20.86,43.73,1.31.76-5.79,8.74-5.12,7.65.76-3.87,13.01-16.94,21.75-30.37,21.26Z"/>
    </g>
  </g>
</svg>