<?xml version="1.0" encoding="UTF-8"?>
<svg id="Worm" xmlns="http://www.w3.org/2000/svg" viewBox="0 0 400 400">
  <defs>
    <style>
      .cls-1 {
        fill: #00b6ff;
      }

      .cls-2 {
        fill: #fff;
      }

      .cls-3 {
        fill: #2d2c2c;
      }

      .cls-4 {
        fill: none;
        opacity: .54;
        stroke: #00b6ff;
        stroke-linecap: round;
        stroke-linejoin: round;
        stroke-width: 90px;
      }
    </style>
  </defs>
  <g>
    <path class="cls-2" d="m200.39,368c-1.75,0-3.51-.06-5.23-.17-.49,0-.97.01-1.46.01-31.76,0-57.83-16.36-66.43-41.69-8.01-23.61,1.15-49.26,23.93-67.18,6.5-15.01,17.15-24.67,25.73-32.46,7.15-6.49,13.9-12.61,19.76-22.83,5.06-8.81,1.04-22.77-3.21-32.93-5.59-13.33-13.78-25.53-19.1-31.92h0c-7.41-8.82-11.48-20-11.48-31.51,0-27.02,21.98-49,49-49,13.09,0,25.53,5.21,34.7,14.41l.12-.1,2.54,2.98.73.88c3.77,4.57,19.52,24.43,31.6,51.27,26.03,57.83,14.42,99.72.09,124.69-3.55,6.19-7.5,12.17-11.77,17.82,3.85,5.37,6.8,11.38,8.79,17.9,8.46,29.75-13.47,60.27-38.62,71.54l-.1.04-.1.04c-14.33,5.52-27.26,8.21-39.51,8.21h0Z"/>
    <path class="cls-3" d="m211.9,62.32c13.75,0,26.05,6.17,34.3,15.89h0c.1.11.24.28.41.48,0,0,0,0,0,0,3.21,3.85,19.13,23.6,31.33,50.71,25.33,56.29,14.13,96.9.27,121.06-4.34,7.56-8.86,14.1-13.33,19.79,4.33,5.42,7.76,11.77,10,19.09,7.71,27.14-12.09,55.82-36.43,66.72-12.2,4.7-25.01,7.94-38.07,7.94-1.71,0-3.42-.06-5.13-.17-.52,0-1.04.01-1.56.01-63.2,0-88.77-64.33-39.22-102.35,6.11-14.73,16.61-24.27,25.14-32.02,7.39-6.71,14.36-13.04,20.54-23.8,10.7-18.64-11.11-55.46-22.71-69.4l.14.16h0c-6.67-7.85-10.7-18.01-10.7-29.11,0-24.85,20.15-45,45-45m0-8c-29.22,0-53,23.78-53,53,0,12.45,4.41,24.53,12.41,34.06h0c5.55,6.67,13.41,18.82,18.48,30.91,5.53,13.18,6.74,23.62,3.43,29.39-5.55,9.67-11.77,15.32-18.98,21.86-8.24,7.48-19.41,17.61-26.3,32.91-11.72,9.43-20.12,20.94-24.34,33.39-4.21,12.42-4.25,25.42-.12,37.6,4.37,12.89,13.03,23.88,25.04,31.78,12.54,8.26,28.16,12.62,45.18,12.62.45,0,.9,0,1.36,0,1.76.11,3.55.17,5.33.17,12.75,0,26.15-2.77,40.95-8.47l.2-.08.2-.09c13.71-6.14,26.05-17.26,33.86-30.51,8.7-14.75,11.18-30.98,7-45.7l-.02-.08-.02-.08c-1.83-5.97-4.41-11.54-7.71-16.63,3.72-5.1,7.18-10.43,10.33-15.93,14.79-25.77,26.8-68.95.09-128.32-12.37-27.48-28.54-47.79-32.24-52.27h0s-.18-.22-.18-.22c-.02-.02-.03-.04-.05-.06l-.13-.16h0c-.13-.16-.24-.29-.32-.39l-5.17-6.09-.47.4c-9.59-8.35-21.89-13.01-34.77-13.01h0Z"/>
  </g>
  <g>
    <path d="m274.89,289.34c7.71,27.14-12.09,55.82-36.43,66.72-13.79,5.31-28.38,8.76-43.2,7.77-66.41,1.1-92.41-68.28-35.7-105.97,37.6-22.66,100.97-15.47,115.33,31.48Z"/>
    <g>
      <path class="cls-4" d="m211.9,107.32s57.61,67.9,27.29,120.75c-24.89,43.38-58.25,41.15-38.36,73.93"/>
      <circle class="cls-1" cx="211.9" cy="107.32" r="45"/>
      <path class="cls-3" d="m210.86,137.71c-13.15.41-25.29-9.35-28.37-22.01-.52-4.57,6.25-5.82,7.37-1.33,5.85,20.95,36.11,20.86,43.73,1.31.76-5.79,8.74-5.12,7.65.76-3.87,13.01-16.94,21.75-30.37,21.26Z"/>
    </g>
  </g>
</svg>