<?xml version="1.0" encoding="UTF-8"?>
<svg id="Worm" xmlns="http://www.w3.org/2000/svg" viewBox="0 0 400 400">
  <defs>
    <style>
      .cls-1 {
        fill: #00b6ff;
      }

      .cls-2 {
        fill: #fff;
      }

      .cls-3 {
        fill: #2d2c2c;
      }

      .cls-4 {
        fill: none;
        opacity: .54;
        stroke: #00b6ff;
        stroke-linecap: round;
        stroke-linejoin: round;
        stroke-width: 90px;
      }
    </style>
  </defs>
  <g>
    <path class="cls-2" d="m200.39,368c-1.75,0-3.51-.06-5.23-.17-.49,0-.97.01-1.46.01-29.52,0-54.22-14.08-64.47-36.74-8.66-19.14-5.53-40.71,8.27-58.48-10.82-8.17-20.15-18.44-27.76-30.56-11.86-18.89-18.52-41.06-18.74-62.43-.41-39.16,19.26-88.09,23.2-97.5.7-1.7,1.5-3.38,2.38-4.98l.08-.14c.36-.65.71-1.26,1.08-1.86.19-.31.39-.62.59-.92l.32-.49c.11-.17.21-.34.33-.5.38-.56.77-1.11,1.17-1.65l.15-.2c1.86-2.49,3.96-4.8,6.26-6.89l.1-.09c.49-.44,1.01-.9,1.55-1.34l.28-.23c.46-.38.93-.74,1.4-1.1l.55-.42c.39-.29.78-.56,1.16-.83.29-.2.58-.41.89-.61.26-.17.52-.34.78-.5l.09-.06c.41-.26.83-.52,1.25-.77l.57-.33c.52-.3,1.05-.6,1.59-.88l.19-.1c.71-.37,1.35-.68,2-.98,2.87-1.33,5.83-2.37,8.85-3.11l.19-.04c.68-.17,1.36-.32,2.04-.45.19-.04.38-.07.58-.11l.48-.09c.4-.07.79-.14,1.19-.2.69-.1,1.4-.19,2.1-.27l.2-.02c1.64-.17,3.33-.26,5-.26,2.47,0,4.97.19,7.41.57.11.02.45.08.45.08.62.1,1.24.21,1.85.33.64.13,1.29.28,1.93.44l.33.08c4.8,1.21,9.37,3.13,13.59,5.72.29.18.58.37.87.55l.44.29c.21.13.41.26.61.4.54.37,1.08.75,1.61,1.15l.28.2c2.45,1.83,4.76,3.93,6.85,6.23.52.57.98,1.1,1.43,1.64l.2.24c.39.48.76.95,1.12,1.43l.4.52c.29.4.57.79.85,1.19.21.3.4.57.58.85.18.28.36.55.53.83.3.48.55.88.79,1.28l.35.62c.29.5.58,1.02.86,1.55l.16.31c.33.63.63,1.25.92,1.88l.05.11c1.29,2.79,2.33,5.74,3.07,8.73l.05.2c.17.72.32,1.37.45,2.03.04.21.08.44.12.66l.11.6c.06.33.12.65.17.99.74,4.89.74,9.84-.01,14.73-.02.13-.09.54-.09.54-.1.59-.2,1.17-.31,1.75-.12.62-.27,1.23-.42,1.85-.04.2-.07.31-.1.43-.63,2.53-1.49,5.04-2.54,7.46-6.52,15.66-15.67,44.18-15.52,58.41.07,6.54,5.08,15.39,9.56,16.91,35.89,12.12,60.47,37.59,66.01,68.3,6.55,6.88,11.31,15.07,14.15,24.36,8.46,29.75-13.47,60.27-38.62,71.54l-.2.08c-14.33,5.52-27.26,8.21-39.51,8.21h0Z"/>
    <path class="cls-3" d="m159.55,55.73c2.26,0,4.53.17,6.8.52.14.02.28.05.42.07.56.09,1.13.19,1.69.3.6.12,1.19.26,1.78.4.1.02.2.04.3.07,4.46,1.12,8.65,2.91,12.47,5.25.34.21.67.43,1.01.65.25.16.51.32.75.49.51.34,1,.7,1.49,1.06.07.05.15.11.22.16,2.31,1.73,4.42,3.65,6.32,5.74.01.02.03.03.04.04.43.48.86.97,1.27,1.46.06.08.13.15.2.23.35.43.69.86,1.02,1.3.12.16.25.32.37.49.26.36.52.72.77,1.09.18.26.36.52.54.79.18.27.36.55.53.83.23.37.46.73.68,1.11.11.18.21.37.32.56.27.47.53.94.79,1.42.05.1.1.2.15.3.29.56.57,1.13.84,1.71.01.03.02.05.04.08,1.18,2.56,2.14,5.25,2.83,8.04.02.08.04.16.06.25.14.6.28,1.2.4,1.8.06.29.1.58.16.88.07.4.15.79.21,1.19.67,4.43.69,8.98-.01,13.52-.03.17-.06.33-.09.5-.09.53-.18,1.07-.29,1.6-.12.57-.25,1.14-.39,1.7-.03.13-.06.25-.09.38-.59,2.37-1.38,4.66-2.33,6.87-6.73,16.16-16.01,45.18-15.85,60.05.08,7.5,5.58,18.39,12.28,20.65,35.22,11.89,58.7,36.55,63.56,66.41,6.27,6.32,11.16,14.17,14.06,23.63,7.71,27.14-12.09,55.82-36.43,66.72-12.2,4.7-25.01,7.94-38.07,7.94-1.71,0-3.42-.06-5.13-.17-.52,0-1.04.01-1.56.01-57.73,0-84.06-53.68-50.4-91.96-11.8-8.18-22.01-18.95-30.17-31.95-11.47-18.27-17.91-39.7-18.13-60.35-.4-38.13,18.56-85.58,22.89-95.91.65-1.58,1.38-3.12,2.19-4.6.02-.03.04-.06.05-.09.33-.59.66-1.17,1.01-1.74.22-.36.46-.72.69-1.07.15-.23.3-.47.45-.69.35-.51.71-1.01,1.07-1.51.05-.07.1-.14.15-.2,1.72-2.3,3.65-4.41,5.73-6.31.02-.02.04-.04.07-.06.47-.43.95-.84,1.44-1.25.09-.07.17-.15.26-.22.42-.34.84-.67,1.27-1,.17-.13.35-.27.52-.4.35-.26.7-.5,1.05-.75.27-.19.55-.38.82-.56.26-.17.53-.34.79-.51.38-.24.76-.48,1.15-.71.17-.1.34-.2.51-.29.49-.28.98-.55,1.47-.81.08-.04.17-.09.25-.13.58-.3,1.17-.59,1.76-.87.01,0,.02,0,.03-.01,2.57-1.19,5.28-2.15,8.09-2.84.06-.02.12-.03.18-.04.62-.15,1.24-.29,1.86-.41.26-.05.51-.09.77-.14.43-.08.86-.16,1.3-.22.64-.1,1.29-.18,1.94-.25.05,0,.11-.01.16-.02,1.53-.16,3.06-.24,4.61-.24m0-8c-1.81,0-3.63.09-5.43.28-.08,0-.17.02-.26.03-.81.09-1.53.18-2.21.28-.42.06-.85.14-1.29.22l-.23.04-.23.04c-.23.04-.46.08-.69.13-.65.13-1.35.28-2.14.47-.1.02-.18.04-.27.06-3.24.8-6.43,1.92-9.49,3.33h-.02s-.02.02-.02.02h-.02c-.68.33-1.38.67-2.08,1.03l-.04.02-.24.12c-.56.3-1.13.61-1.75.97l-.12.07c-.16.09-.31.18-.47.27-.47.28-.92.56-1.37.85l-.04.02c-.29.19-.59.37-.88.56-.34.23-.66.45-.98.67-.4.28-.82.57-1.23.87-.18.13-.34.26-.51.38l-.12.09c-.54.41-1.03.8-1.49,1.17l-.25.2-.07.06c-.59.49-1.16.98-1.69,1.47l-.04.04-.06.05c-2.48,2.26-4.74,4.75-6.73,7.42-.06.08-.12.16-.18.25-.48.66-.89,1.22-1.26,1.77-.13.19-.26.4-.4.61l-.13.2-.14.22c-.23.35-.46.7-.68,1.06-.37.61-.75,1.26-1.15,1.97-.04.06-.07.12-.1.18-.94,1.7-1.8,3.52-2.57,5.37-2.3,5.49-8.2,20.15-13.51,38.35-6.81,23.32-10.17,43.74-9.99,60.7.23,22.1,7.11,45.01,19.35,64.52,7.14,11.36,15.73,21.15,25.63,29.19-12.7,18.31-15.17,39.97-6.4,59.37,5.22,11.53,14.05,21.26,25.56,28.12,12.04,7.18,26.76,10.98,42.55,10.98.45,0,.9,0,1.36,0,1.76.11,3.55.17,5.33.17,12.75,0,26.15-2.77,40.95-8.47l.2-.08.2-.09c13.71-6.14,26.05-17.26,33.86-30.51,8.7-14.75,11.18-30.98,7-45.7l-.02-.08-.02-.08c-2.91-9.51-7.7-17.93-14.26-25.08-3.01-15.34-10.6-29.7-22.06-41.69-11.87-12.42-27.91-22.28-46.39-28.52-2.41-.81-6.79-7.76-6.84-13.16-.13-12.23,7.79-39.01,15.22-56.84,1.12-2.6,2.04-5.31,2.73-8.04.03-.13.07-.27.1-.42.15-.64.31-1.31.46-2.03.13-.64.23-1.25.34-1.88l.02-.08c.03-.18.06-.35.09-.53.81-5.26.81-10.62.01-15.92-.05-.37-.12-.74-.19-1.12l-.05-.27-.05-.26c-.04-.26-.09-.52-.14-.79-.12-.62-.27-1.29-.46-2.09-.03-.12-.05-.22-.08-.32-.8-3.22-1.91-6.4-3.32-9.44l-.04-.09c-.32-.7-.65-1.35-1.01-2.05l-.03-.06-.14-.28c-.28-.54-.59-1.09-.94-1.69l-.06-.11c-.1-.18-.21-.36-.31-.54-.26-.45-.54-.88-.81-1.31-.22-.34-.42-.66-.62-.97-.2-.3-.4-.59-.6-.87l-.04-.06c-.29-.42-.59-.85-.91-1.27-.12-.16-.24-.31-.35-.46l-.09-.12c-.42-.55-.81-1.05-1.2-1.52l-.2-.23-.04-.05c-.5-.6-.99-1.17-1.49-1.72l-.04-.04-.04-.04c-2.26-2.48-4.75-4.75-7.43-6.74-.08-.06-.17-.13-.26-.19-.67-.49-1.22-.89-1.75-1.24-.21-.14-.44-.29-.67-.44l-.21-.13-.23-.15c-.32-.21-.64-.42-.97-.62-4.55-2.79-9.5-4.87-14.69-6.18-.12-.03-.26-.06-.39-.09h.04c-.57-.13-1.32-.31-2.11-.47-.7-.14-1.39-.26-1.97-.35h-.04c-.16-.04-.31-.06-.47-.09-2.63-.4-5.33-.61-8-.61h0Z"/>
  </g>
  <g>
    <path d="m274.89,289.34c7.71,27.14-12.09,55.82-36.43,66.72-13.79,5.31-28.38,8.76-43.2,7.77-66.41,1.1-92.41-68.28-35.7-105.97,37.6-22.66,100.97-15.47,115.33,31.48Z"/>
    <g>
      <path class="cls-4" d="m159.53,100.73s-19.87,47.05-19.54,78.38c.25,23.9,15.43,53.54,42.88,62.81,39.77,13.43,42.88,45.05,17.95,60.07"/>
      <circle class="cls-1" cx="159.53" cy="100.73" r="45"/>
      <path class="cls-3" d="m158.5,131.12c-13.15.41-25.29-9.35-28.37-22.01-.52-4.57,6.25-5.82,7.37-1.33,5.85,20.95,36.11,20.86,43.73,1.31.76-5.79,8.74-5.12,7.65.76-3.87,13.01-16.94,21.75-30.37,21.26Z"/>
    </g>
  </g>
</svg>