<?xml version="1.0" encoding="UTF-8"?>
<svg id="Worm" xmlns="http://www.w3.org/2000/svg" viewBox="0 0 400 400">
  <defs>
    <style>
      .cls-1 {
        fill: #00b6ff;
      }

      .cls-2 {
        fill: #fff;
      }

      .cls-3 {
        fill: #2d2c2c;
      }

      .cls-4 {
        fill: none;
        opacity: .54;
        stroke: #00b6ff;
        stroke-linecap: round;
        stroke-linejoin: round;
        stroke-width: 90px;
      }
    </style>
  </defs>
  <g>
    <path class="cls-2" d="m200.39,368c-1.75,0-3.51-.06-5.23-.17-.49,0-.97.01-1.46.01-32.73,0-59.02-17.05-66.99-43.44-7.68-25.44,4.06-52.21,30.64-69.88l.15-.09c5.07-3.06,10.62-5.62,16.54-7.65-2.26-2.39-4.79-4.92-6.86-6.99-12.86-12.84-30.47-30.43-38.76-56.94-9.13-29.22-4.72-59.99,13.48-94.05,7.75-18.21,25.52-29.97,45.32-29.97,27.15,0,49.23,22.09,49.23,49.23,0,9.93-2.95,19.49-8.52,27.68-5.85,11.16-6.28,16.78-5.97,17.88,1.08,3.46,9.13,11.5,14.46,16.82,14.02,13.99,31.46,31.41,37.92,59,3.05,13.03,7.64,32.58,2.6,53.68.67,1.67,1.27,3.36,1.78,5.05,8.46,29.75-13.47,60.27-38.62,71.54l-.2.08c-14.33,5.52-27.26,8.21-39.51,8.21h0Z"/>
    <path class="cls-3" d="m187.21,62.84c24.98,0,45.23,20.25,45.23,45.23,0,9.51-2.94,18.33-7.95,25.61-5.95,11.3-7.21,18.4-6.36,21.13,1.38,4.4,8.85,11.87,15.45,18.46,13.65,13.63,30.65,30.6,36.85,57.08,3.07,13.12,7.6,32.45,2.3,53.08.81,1.89,1.53,3.86,2.15,5.9,7.71,27.14-12.09,55.82-36.43,66.72-12.2,4.7-25.01,7.94-38.07,7.94-1.71,0-3.42-.06-5.13-.17-.52,0-1.04.01-1.56.01-65.26,0-90.4-68.59-34.14-105.98,6.55-3.95,13.88-6.98,21.59-9.07-2.74-3.42-7.62-8.3-11.15-11.83-12.57-12.55-29.78-29.73-37.77-55.3-8.8-28.16-4.45-58.02,13.27-91.13,6.85-16.27,22.94-27.7,41.71-27.7m0-8c-21.35,0-40.51,12.64-48.93,32.24-18.66,34.99-23.14,66.72-13.69,96.97,8.58,27.46,26.6,45.44,39.75,58.58.78.78,1.66,1.66,2.58,2.58-4.03,1.68-7.87,3.62-11.49,5.8l-.15.09-.15.1c-28.11,18.68-40.46,47.18-32.25,74.37,4.03,13.35,12.59,24.78,24.76,33.07,12.7,8.64,28.62,13.21,46.06,13.21.45,0,.9,0,1.36,0,1.76.11,3.55.17,5.33.17,12.75,0,26.15-2.77,40.95-8.47l.2-.08.2-.09c13.71-6.14,26.05-17.26,33.86-30.51,8.7-14.75,11.18-30.98,7-45.7l-.02-.08-.02-.08c-.43-1.39-.91-2.79-1.43-4.18,4.8-21.52.2-41.14-2.88-54.29-6.73-28.7-24.62-46.56-38.99-60.92-4.19-4.19-11.87-11.85-13.35-14.91.05-1.56,1.06-6.43,5.47-14.9,5.94-8.81,9.08-19.08,9.08-29.73,0-29.35-23.88-53.23-53.23-53.23h0Z"/>
  </g>
  <g>
    <path d="m274.89,289.34c7.71,27.14-12.09,55.82-36.43,66.72-13.79,5.31-28.38,8.76-43.2,7.77-66.41,1.1-92.41-68.28-35.7-105.97,37.6-22.66,100.97-15.47,115.33,31.48Z"/>
    <g>
      <path class="cls-4" d="m200.83,302c33.16-20.22,32.29-33.65,25.8-61.37-9.75-41.59-84.47-53.28-39.42-132.55"/>
      <g>
        <circle class="cls-1" cx="187.21" cy="108.07" r="45.23"/>
        <path class="cls-3" d="m186.17,138.46c-13.15.41-25.29-9.35-28.37-22.01-.52-4.57,6.25-5.82,7.37-1.33,5.85,20.95,36.11,20.86,43.73,1.31.76-5.79,8.74-5.12,7.65.76-3.87,13.01-16.94,21.75-30.37,21.26Z"/>
      </g>
    </g>
  </g>
</svg>