<?xml version="1.0" encoding="UTF-8"?>
<svg id="Worm" xmlns="http://www.w3.org/2000/svg" viewBox="0 0 400 400">
  <defs>
    <style>
      .cls-1 {
        fill: #00b6ff;
      }

      .cls-2 {
        fill: #fff;
      }

      .cls-3 {
        fill: #2d2c2c;
      }

      .cls-4 {
        fill: none;
        opacity: .54;
        stroke: #00b6ff;
        stroke-linecap: round;
        stroke-linejoin: round;
        stroke-width: 90px;
      }
    </style>
  </defs>
  <g>
    <path class="cls-2" d="m200.39,368c-1.75,0-3.51-.06-5.23-.17-.49,0-.97.01-1.46.01-32.73,0-59.02-17.05-66.99-43.44-7.68-25.44,4.06-52.21,30.64-69.88l.15-.09c.8-.48,1.62-.96,2.47-1.43,4.86-9.51,10.62-16.51,14.87-21.67,3.6-4.37,5.37-6.58,6.28-8.86,1.81-4.55.48-10.29-7.49-32.34-7.22-19.95-16.2-44.77-19.61-77.71l-.1-.95c-.47-2.76-.71-5.53-.71-8.25,0-26.87,21.86-48.85,48.73-48.99h.43c25.17,0,46.11,18.9,48.69,43.96l.42,4.08c2.17,21.01,8.33,38.04,14.29,54.52,10.49,28.99,22.37,61.84,6.37,101.97-1.22,3.05-2.59,6.08-4.09,9.04,4.77,5.99,8.36,12.82,10.66,20.36,8.46,29.75-13.47,60.27-38.62,71.54l-.2.08c-14.33,5.52-27.26,8.21-39.51,8.21h0Z"/>
    <path class="cls-3" d="m202.37,58.25c22.77,0,42.33,17.22,44.72,40.38l.42,4.08c2.22,21.5,8.47,38.77,14.51,55.47,10.24,28.31,21.85,60.41,6.42,99.12-1.59,4-3.34,7.67-5.16,11.03,5.1,5.83,9.11,12.81,11.62,21.01,7.71,27.14-12.09,55.82-36.43,66.72-12.2,4.7-25.01,7.94-38.07,7.94-1.71,0-3.42-.06-5.13-.17-.52,0-1.04.01-1.56.01-65.26,0-90.4-68.59-34.14-105.98,1.12-.67,2.26-1.32,3.42-1.94,4.75-9.65,10.64-16.81,14.94-22.04,3.87-4.7,5.77-7.08,6.91-9.92,2.42-6.08.59-12.96-7.45-35.18-7.14-19.75-16.03-44.32-19.39-76.76,0-.03,0-.06,0-.09l-.1-.99c-.43-2.5-.67-5.07-.67-7.7,0-24.77,20.01-44.86,44.75-44.99.14,0,.27,0,.41,0m0-8h-.48c-29.03.16-52.68,23.93-52.68,53,0,2.9.25,5.85.74,8.78l.08.73v.08c3.47,33.43,12.54,58.51,19.83,78.67,6.78,18.73,8.93,26,7.54,29.49-.66,1.64-2.15,3.54-5.65,7.8-3.97,4.82-9.82,11.93-14.78,21.31-.52.3-1.04.6-1.54.9l-.15.09-.15.1c-28.11,18.68-40.46,47.18-32.25,74.37,4.03,13.35,12.59,24.78,24.76,33.07,12.7,8.64,28.62,13.21,46.06,13.21.45,0,.9,0,1.36,0,1.76.11,3.55.17,5.33.17,12.75,0,26.15-2.77,40.95-8.47l.2-.08.2-.09c13.71-6.14,26.05-17.26,33.86-30.51,8.7-14.75,11.18-30.98,7-45.7l-.02-.08-.02-.08c-2.2-7.18-5.48-13.76-9.8-19.64,1.12-2.34,2.17-4.71,3.12-7.1,7.41-18.6,9.68-37.41,6.91-57.51-2.37-17.24-8.14-33.21-13.24-47.29-5.88-16.25-11.96-33.05-14.07-53.57l-.42-4.08c-1.35-13.13-7.51-25.2-17.33-34.01-9.75-8.74-22.3-13.55-35.34-13.55h0Z"/>
  </g>
  <g>
    <path d="m274.89,289.34c7.71,27.14-12.09,55.82-36.43,66.72-13.79,5.31-28.38,8.76-43.2,7.77-66.41,1.1-92.41-68.28-35.7-105.97,37.6-22.66,100.97-15.47,115.33,31.48Z"/>
    <g>
      <path class="cls-4" d="m200.83,302c-6.06-32.35,15.49-35.52,25.8-61.37,15.82-39.68-17.33-69.74-23.89-133.31-.95-9.18,0,0,0,0"/>
      <circle class="cls-1" cx="202.21" cy="103.24" r="45"/>
      <path class="cls-3" d="m201.17,133.63c-13.15.41-25.29-9.35-28.37-22.01-.52-4.57,6.25-5.82,7.37-1.33,5.85,20.95,36.11,20.86,43.73,1.31.76-5.79,8.74-5.12,7.65.76-3.87,13.01-16.94,21.75-30.37,21.26Z"/>
    </g>
  </g>
</svg>