<?xml version="1.0" encoding="UTF-8"?>
<svg id="Worm" xmlns="http://www.w3.org/2000/svg" viewBox="0 0 400 400">
  <defs>
    <style>
      .cls-1 {
        fill: #00b6ff;
      }

      .cls-2 {
        fill: #fff;
      }

      .cls-3 {
        fill: #2d2c2c;
      }

      .cls-4 {
        fill: none;
        opacity: .54;
        stroke: #00b6ff;
        stroke-linecap: round;
        stroke-linejoin: round;
        stroke-width: 90px;
      }
    </style>
  </defs>
  <g>
    <path class="cls-2" d="m200.39,368c-1.75,0-3.51-.06-5.23-.17-.49,0-.97.01-1.46.01-32.73,0-59.02-17.05-66.99-43.44-7.68-25.44,4.06-52.21,30.64-69.88l.15-.09c.41-.25.83-.49,1.25-.74-2.19-.24-4.25-.45-6.21-.66l-.15-.02c-5.4-.57-10.49-1.11-16.28-1.81-21.86-2.65-41.3-14.06-53.34-31.29-12.65-18.12-16.49-41.38-10.81-65.52,7.16-30.44,35.16-70.75,43.57-82.38l.16-.21c.31-.43.63-.83.95-1.24l.09-.12c.17-.22.34-.44.51-.65.21-.26.43-.51.64-.76l.23-.27c.25-.29.5-.59.76-.88l.46-.5c3.9-4.2,8.46-7.66,13.56-10.27,5.12-2.63,10.62-4.31,16.34-5.01,0,0,.52-.07.68-.09.36-.04.72-.07,1.08-.1l.33-.03c.37-.03.73-.06,1.09-.08.24-.01.48-.02.72-.03h.23c.53-.03,1.06-.04,1.6-.05.08,0,.17,0,.26,0,.13,0,.26,0,.39,0,.68,0,1.26.02,1.85.05.22,0,.44.02.65.04.63.04,1.21.08,1.79.14.25.02.5.05.75.08.55.06,1.09.13,1.63.21.28.04.55.08.83.13.51.08,1.01.17,1.52.27.31.06.61.12.92.19.46.1.93.21,1.39.32.33.08.66.17.99.25.43.12.86.24,1.28.36.36.11.72.22,1.08.33.38.12.77.26,1.16.39.39.14.78.28,1.16.42.35.13.7.27,1.04.41.42.17.83.34,1.24.52.31.14.61.27.92.42.44.2.88.42,1.32.64.27.13.54.27.81.42.46.24.92.49,1.38.75.24.14.48.27.71.41.48.29.96.58,1.43.88.24.15.44.28.63.41.48.32.95.64,1.42.97,0,0,.31.21.41.28.08.06.15.11.22.17.42.3.83.63,1.25.95l.14.11c.21.16.41.32.61.48.28.23.55.46.82.69l.28.24c.28.24.55.47.82.71.12.11.5.47.5.47,4.25,3.94,7.73,8.55,10.34,13.71,2.26,4.45,3.83,9.19,4.64,14.1v.02s.06.32.06.32c.09.54.16,1.12.23,1.7,0,0,.07.57.09.75.04.33.07.69.09,1.04l.03.39c.03.35.06.71.08,1.06.02.27.02.53.03.8v.15c.03.52.04,1.06.04,1.6,0,.06,0,.16,0,.25,0,.13-.01.5-.01.5,0,.57-.02,1.15-.04,1.73-.01.24-.03.48-.04.72-.03.57-.08,1.14-.13,1.71-.03.26-.05.52-.08.77-.06.53-.13,1.07-.21,1.62-.04.27-.08.55-.12.83-.08.51-.17,1.01-.27,1.51-.06.32-.12.62-.19.93-.1.47-.21.92-.32,1.38-.08.34-.17.68-.26,1.01-.11.42-.23.84-.36,1.26-.11.36-.22.73-.34,1.09-.13.39-.26.77-.39,1.15-.13.38-.28.78-.42,1.17-.13.34-.26.68-.4,1.02-.17.43-.35.85-.53,1.26-.13.3-.27.6-.41.91-.21.44-.42.89-.64,1.33-.13.27-.27.54-.41.81-.24.46-.49.92-.75,1.38-.13.24-.27.48-.41.72-.27.47-.57.94-.87,1.42-.17.27-.29.46-.41.65-.31.47-.63.93-.95,1.39,0,0-.21.31-.29.42-6.14,8.51-12.6,18.52-17.92,27.7,6.4.72,14.68,1.71,25.6,3.14,23.39,3.06,43.77,12.72,58.95,27.93,14.86,14.89,23.38,33.93,23.38,52.24,0,5.84-.86,21.32-8.68,41.1.94,2.17,1.76,4.4,2.45,6.65,8.46,29.75-13.47,60.27-38.62,71.54l-.2.08c-14.33,5.52-27.26,8.21-39.51,8.21h0Z"/>
    <path class="cls-3" d="m155.22,55.73c.15,0,.3,0,.45.01.54,0,1.07.02,1.61.04.22,0,.43.02.65.04.53.03,1.06.07,1.59.12.23.02.46.05.69.07.5.06,1,.12,1.5.19.25.04.51.08.76.12.46.08.93.16,1.39.25.28.05.56.11.84.17.43.09.85.19,1.28.3.31.08.61.15.92.24.39.1.78.22,1.17.33.33.1.66.2.99.31.36.12.71.24,1.06.36.36.13.71.25,1.06.39.32.12.64.25.95.38.38.16.76.32,1.14.48.28.12.57.25.85.38.41.19.81.38,1.21.58.25.12.5.25.74.38.43.23.85.46,1.27.7.22.12.43.25.65.37.44.26.88.53,1.32.81.19.12.39.25.58.37.44.29.87.59,1.3.89.13.09.26.17.38.26.07.05.13.1.19.15.39.29.77.58,1.15.88.23.18.47.36.69.54.29.23.57.48.85.72.31.26.61.52.91.79.15.14.3.28.46.43,3.97,3.68,7.15,7.96,9.5,12.59,2.08,4.08,3.55,8.52,4.3,13.21,0,0,0,.01,0,.02.08.53.15,1.06.22,1.6.03.22.06.45.08.67.04.39.07.78.1,1.16.03.38.07.76.09,1.15.02.28.02.57.03.85.02.49.03.98.04,1.48,0,.08,0,.16,0,.24,0,.15,0,.3-.01.44,0,.54-.02,1.07-.04,1.61,0,.22-.02.44-.04.66-.03.53-.07,1.05-.12,1.58-.02.23-.05.47-.07.7-.05.5-.12.99-.19,1.49-.04.26-.08.51-.12.77-.07.46-.16.92-.25,1.38-.06.28-.11.57-.17.85-.09.42-.19.84-.29,1.27-.08.31-.16.62-.24.93-.1.39-.21.77-.33,1.15-.1.34-.2.67-.31,1.01-.11.35-.23.7-.35,1.05-.13.36-.26.72-.39,1.08-.12.31-.24.63-.37.94-.16.39-.32.77-.48,1.15-.12.28-.25.56-.38.84-.19.41-.39.82-.59,1.22-.12.25-.25.49-.38.74-.22.43-.46.85-.7,1.28-.12.22-.25.43-.37.65-.26.44-.53.88-.8,1.31-.13.2-.25.4-.38.59-.28.43-.58.86-.88,1.28-.09.13-.18.26-.27.39-7.71,10.69-15.62,23.3-21.14,33.35,7.94.86,17.8,2,31.54,3.8,22.5,2.94,42.09,12.21,56.64,26.78,14.12,14.15,22.21,32.16,22.21,49.42,0,10.03-2.39,24.98-9.03,41.18,1.14,2.45,2.14,5.02,2.97,7.73,7.71,27.14-12.09,55.82-36.43,66.72-12.2,4.7-25.01,7.94-38.07,7.94-1.71,0-3.42-.06-5.13-.17-.52,0-1.04.01-1.56.01-65.26,0-90.4-68.59-34.14-105.98,4.27-2.57,8.88-4.76,13.7-6.55-8.24-.98-14.52-1.64-20.31-2.25-5.43-.57-10.56-1.11-16.37-1.82-20.74-2.51-39.16-13.31-50.54-29.61-11.99-17.17-15.61-39.3-10.2-62.31,6.99-29.72,34.62-69.48,42.92-80.95.05-.07.1-.13.15-.2.28-.38.57-.76.86-1.13.19-.24.37-.48.56-.71.23-.28.47-.56.71-.84.26-.31.53-.62.8-.92.14-.15.28-.3.42-.44,3.65-3.94,7.87-7.09,12.46-9.43,4.6-2.36,9.66-3.95,15-4.6.21-.03.42-.06.63-.08.39-.04.79-.07,1.18-.1.38-.03.75-.06,1.13-.09.29-.02.57-.02.86-.03.49-.02.98-.03,1.47-.04.08,0,.16,0,.23,0m0-8c-.12,0-.25,0-.37,0-.55,0-1.1.02-1.65.04h-.2c-.27.02-.54.03-.8.04-.41.02-.8.06-1.2.09h-.15s-.17.03-.17.03c-.41.03-.81.07-1.21.11-.2.02-.39.05-.58.07l-.17.02c-6.18.76-12.13,2.58-17.68,5.43-5.51,2.82-10.45,6.56-14.67,11.12l-.1.1c-.13.14-.26.27-.38.41-.29.32-.57.65-.85.97l-.1.12-.1.12c-.24.28-.49.57-.72.86-.18.23-.36.45-.54.68l-.12.16c-.32.41-.64.83-.96,1.26-.08.11-.16.21-.24.32-8.51,11.77-36.88,52.64-44.21,83.8-5.94,25.26-1.89,49.66,11.42,68.72,12.69,18.17,33.15,30.19,56.14,32.97,4.32.52,8.25.96,12.2,1.38-22.88,18.52-32.4,44.3-24.94,69,4.03,13.35,12.59,24.78,24.76,33.07,12.7,8.64,28.62,13.21,46.06,13.21.45,0,.9,0,1.36,0,1.76.11,3.55.17,5.33.17,12.75,0,26.15-2.77,40.95-8.47l.2-.08.2-.09c13.71-6.14,26.05-17.26,33.86-30.51,8.7-14.75,11.18-30.98,7-45.7l-.02-.08-.02-.08c-.57-1.86-1.23-3.71-1.96-5.53,5.34-14.01,8.37-28.79,8.37-41.04,0-19.36-8.95-39.43-24.55-55.07-15.81-15.84-36.99-25.89-61.26-29.07-7.75-1.01-14.17-1.8-19.53-2.44,4.55-7.52,9.67-15.29,14.58-22.09.1-.14.21-.29.31-.45l.02-.04c.34-.49.68-.98,1.01-1.48.14-.21.27-.42.4-.62l.05-.08c.32-.51.64-1.02.95-1.54.15-.25.29-.51.44-.76.28-.5.56-1,.82-1.51.15-.29.3-.57.44-.86.24-.48.47-.96.7-1.44.15-.32.3-.65.44-.98.2-.45.39-.9.57-1.36.15-.37.3-.74.44-1.11.16-.42.31-.85.46-1.27.14-.41.28-.82.42-1.23.13-.4.25-.8.37-1.19.13-.45.26-.91.39-1.36.1-.37.19-.73.28-1.1.12-.49.24-.99.34-1.49.07-.33.14-.66.2-1,.11-.54.2-1.09.29-1.63.05-.31.1-.61.14-.91.08-.58.16-1.17.22-1.75.03-.27.06-.55.09-.82.06-.62.1-1.24.14-1.86v-.1c.02-.22.03-.45.04-.67.03-.57.04-1.18.05-1.85,0-.22.01-.39.01-.56,0-.12,0-.25,0-.37,0-.55-.02-1.1-.04-1.65v-.19c-.02-.27-.03-.54-.04-.81-.02-.42-.06-.84-.09-1.25v-.11s-.02-.16-.02-.16c-.03-.4-.07-.8-.11-1.19-.02-.21-.05-.41-.08-.61l-.02-.18c-.07-.54-.15-1.18-.25-1.84l-.02-.15v-.05c-.88-5.36-2.58-10.55-5.06-15.42-2.82-5.57-6.59-10.57-11.19-14.83l-.11-.11c-.14-.13-.27-.26-.41-.39-.32-.29-.63-.55-.94-.82l-.14-.12-.12-.1c-.29-.25-.58-.5-.88-.74-.22-.18-.44-.35-.66-.52l-.16-.13c-.42-.33-.84-.66-1.28-.98-.1-.08-.2-.15-.3-.22-.15-.11-.29-.21-.44-.31l-.03-.02c-.5-.35-1-.7-1.5-1.03-.2-.13-.39-.26-.59-.38l-.09-.06c-.51-.32-1.03-.64-1.55-.95-.25-.15-.51-.3-.77-.44-.49-.28-1-.55-1.5-.82-.29-.15-.58-.3-.87-.45-.48-.24-.95-.47-1.43-.69-.33-.15-.66-.3-1-.45-.45-.2-.9-.39-1.35-.57-.37-.15-.75-.3-1.12-.44-.42-.16-.84-.31-1.26-.46-.41-.15-.83-.29-1.25-.42-.39-.13-.78-.25-1.17-.36-.45-.14-.91-.27-1.38-.39-.36-.1-.72-.19-1.09-.28-.5-.12-1-.24-1.51-.35-.33-.07-.66-.14-.99-.2-.54-.11-1.09-.2-1.64-.29-.3-.05-.6-.1-.9-.14-.59-.08-1.17-.16-1.76-.22-.27-.03-.54-.06-.82-.09-.62-.06-1.24-.11-1.87-.14h-.12c-.21-.02-.43-.03-.64-.04-.57-.03-1.18-.04-1.86-.05h-.04c-.18,0-.35-.01-.53-.01h0Z"/>
  </g>
  <g>
    <path d="m274.89,289.34c7.71,27.14-12.09,55.82-36.43,66.72-13.79,5.31-28.38,8.76-43.2,7.77-66.41,1.1-92.41-68.28-35.7-105.97,37.6-22.66,100.97-15.47,115.33,31.48Z"/>
    <g>
      <path class="cls-4" d="m155.22,100.73s-30.1,41.63-35.58,64.89,7.3,35.12,22.35,36.94,25.54,2.52,54.28,6.28,39.68,22.91,39.68,31.58-5.02,39.68-35.12,61.57"/>
      <circle class="cls-1" cx="155.22" cy="100.73" r="45"/>
      <path class="cls-3" d="m154.18,131.12c-13.15.41-25.29-9.35-28.37-22.01-.52-4.57,6.25-5.82,7.37-1.33,5.85,20.95,36.11,20.86,43.73,1.31.76-5.79,8.74-5.12,7.65.76-3.87,13.01-16.94,21.75-30.37,21.26Z"/>
    </g>
  </g>
</svg>