<?xml version="1.0" encoding="UTF-8"?>
<svg id="Worm" xmlns="http://www.w3.org/2000/svg" viewBox="0 0 400 400">
  <defs>
    <style>
      .cls-1 {
        fill: #00b6ff;
      }

      .cls-2 {
        fill: #fff;
      }

      .cls-3 {
        fill: #2d2c2c;
      }

      .cls-4 {
        fill: none;
        opacity: .54;
        stroke: #00b6ff;
        stroke-linecap: round;
        stroke-linejoin: round;
        stroke-width: 90px;
      }
    </style>
  </defs>
  <g>
    <path class="cls-2" d="m200.39,368c-1.75,0-3.51-.06-5.23-.17-.49,0-.97.01-1.46.01-25.79,0-47.6-10.38-59.84-28.48-10.08-14.9-12.18-33.04-5.84-49.97-3.19-12.34-2.88-23.98-2.24-32.82,2.32-31.9,20.74-56.08,34.19-73.74,2.7-3.54,6.25-8.21,8.54-11.62-2.08-14.44-10.51-35.72-16.04-46.61l-.09-.2c-.3-.59-.62-1.26-.93-1.95l-.11-.25c-.28-.62-.56-1.3-.82-1.98l-.12-.3c-.24-.62-.46-1.24-.67-1.87l-.18-.53c-.17-.53-.33-1.05-.48-1.58l-.05-.17c-.07-.23-.13-.46-.2-.69-.11-.42-.21-.82-.3-1.22-.1-.42-.2-.85-.29-1.27-.04-.21-.09-.43-.13-.65l-.04-.2c-.11-.55-.21-1.1-.3-1.66l-.08-.52c-.1-.67-.19-1.34-.25-2.01l-.02-.21c-.08-.82-.14-1.56-.18-2.3l3.99-.35-3.99.22c-.04-.82-.06-1.58-.06-2.33v-.21s0-.15,0-.15c0-.63.02-1.33.05-2.04l.03-.55c.03-.58.08-1.16.13-1.73.03-.29.06-.59.09-.9.05-.44.11-.87.16-1.29.06-.44.12-.87.19-1.29.05-.29.1-.55.15-.82.11-.58.22-1.14.34-1.69l.1-.43c.15-.66.31-1.32.49-1.97l.03-.1c.63-2.27,1.41-4.48,2.33-6.59l.04-.08c.31-.7.61-1.35.92-1.99l.18-.36c.28-.55.56-1.1.86-1.65.09-.17.2-.36.31-.54l.23-.39c.2-.34.39-.68.6-1.02.24-.4.5-.8.76-1.19l.14-.21c.11-.16.21-.33.32-.49.36-.54.75-1.07,1.14-1.61l.19-.26c1.81-2.43,3.9-4.73,6.19-6.81l.08-.08c.52-.47,1.04-.92,1.58-1.37l.29-.25c.45-.36.91-.73,1.38-1.08.2-.15.41-.31.62-.47.37-.27.74-.53,1.12-.79.32-.23.67-.46,1.01-.69.28-.18.55-.36.82-.53.47-.29.95-.59,1.44-.87l.5-.29c.61-.35,1.22-.67,1.83-.99l.22-.12.12-.06c.61-.31,1.28-.63,1.97-.94l.22-.1c.66-.29,1.33-.57,2.02-.84l.3-.12c.62-.24,1.25-.46,1.88-.67l.52-.18c.54-.17,1.07-.33,1.6-.48l.13-.04c.24-.07.48-.14.72-.2.42-.11.83-.21,1.25-.31.41-.1.82-.2,1.24-.29.24-.05.47-.09.7-.14l.17-.03c.54-.1,1.09-.21,1.64-.29l.55-.08c.66-.1,1.31-.18,1.97-.25l.24-.02c.81-.08,1.54-.14,2.28-.17h.18c.79-.05,1.55-.07,2.3-.07h.21s.16,0,.16,0c.63,0,1.32.02,2.02.05l.57.03c.57.03,1.13.08,1.7.13.3.03.62.06.93.09.43.05.84.1,1.26.16.44.06.88.12,1.32.2.26.04.51.09.76.14.6.11,1.17.22,1.73.34l.41.1c.66.15,1.33.32,1.99.5l.11.03c2.96.81,5.88,1.92,8.64,3.29l.22.11c.65.33,1.22.62,1.78.93.18.1.73.42.73.42l.09.05c.38.22.75.43,1.12.66.36.22.73.46,1.09.7,0,0,.64.42.8.52.53.36,1.05.73,1.57,1.11l.28.2c2.46,1.84,4.77,3.94,6.85,6.23l.09.1c.44.48.88,1,1.32,1.53l.27.32c.36.44.71.89,1.06,1.35.17.22.33.44.49.66.27.36.52.72.78,1.09.24.34.48.69.71,1.05.17.26.34.52.5.78.31.49.61.98.9,1.48l.28.48c.34.6.68,1.22,1,1.85l.12.22s.39.78.46.91c6.12,12.23,26.18,55.34,26.59,94.29.3,28.15-15.97,49.51-29.04,66.66-.76.99-1.71,2.24-2.74,3.61,21.94,7.07,37.3,21.93,43.54,42.33,8.46,29.75-13.47,60.28-38.62,71.54l-.2.08c-14.33,5.52-27.26,8.21-39.51,8.21h0Z"/>
    <path class="cls-3" d="m196.17,57.44c.05,0,.11,0,.16,0,.64,0,1.28.02,1.91.05.18,0,.35.02.52.03.52.03,1.04.07,1.56.12.29.03.58.06.86.09.38.04.76.09,1.15.15.41.06.82.12,1.22.18.25.04.49.09.73.13.52.1,1.04.2,1.56.31.12.03.24.06.37.08.62.14,1.23.29,1.84.46.03,0,.05.01.07.02,2.77.76,5.43,1.78,7.96,3.03.09.05.18.1.28.14.53.26,1.05.54,1.56.82.23.13.45.26.67.39.37.21.75.43,1.11.65.37.23.73.46,1.09.7.21.14.43.28.64.42.49.33.97.68,1.44,1.03.08.06.17.12.25.18,2.26,1.69,4.36,3.6,6.29,5.72.02.02.04.04.06.06.42.47.83.94,1.24,1.43.08.1.17.2.25.29.33.41.66.82.97,1.24.15.2.31.4.46.61.24.33.48.66.71,1,.22.32.44.64.66.97.16.24.31.48.46.72.28.45.56.9.82,1.36.08.14.17.29.25.43.32.56.63,1.13.92,1.71.02.04.05.08.07.12.06.12.13.26.2.39.09.18.18.35.27.53,5.27,10.55,25.79,54.03,26.2,92.6.28,26.78-15.52,47.53-28.22,64.2-1.73,2.27-3.98,5.22-6.21,8.3,21.24,5.3,39.46,18.67,46.36,41.23,7.71,27.14-12.09,55.82-36.43,66.72-12.2,4.7-25.01,7.94-38.07,7.94-1.71,0-3.42-.06-5.13-.17-.52,0-1.04.01-1.56.01-49.21,0-75.6-39-61.48-74.22-3.28-11.81-3.14-23.31-2.45-32.76,2.23-30.71,20.24-54.35,33.38-71.6,3.01-3.95,7.24-9.5,9.51-13.1-1.74-14.73-10.53-37.35-16.63-49.36-.02-.04-.03-.07-.05-.11-.31-.61-.6-1.23-.89-1.86-.03-.07-.06-.13-.09-.2-.27-.61-.53-1.23-.77-1.86-.04-.09-.08-.19-.11-.28-.22-.56-.42-1.13-.61-1.71-.06-.16-.11-.33-.17-.49-.15-.48-.3-.96-.44-1.44-.08-.27-.16-.54-.23-.8-.1-.37-.19-.74-.28-1.12-.09-.39-.19-.78-.27-1.17-.05-.26-.1-.52-.15-.78-.1-.51-.19-1.02-.27-1.53-.02-.16-.05-.32-.07-.48-.09-.61-.17-1.23-.23-1.84,0-.09-.02-.18-.02-.27-.07-.68-.12-1.36-.16-2.05,0-.06,0-.12,0-.18-.03-.7-.05-1.4-.05-2.1,0-.04,0-.07,0-.11,0-.05,0-.1,0-.14,0-.65.02-1.29.05-1.94,0-.17.02-.33.03-.5.03-.53.07-1.06.12-1.59.03-.28.05-.56.08-.84.04-.39.09-.78.15-1.18.05-.4.11-.8.18-1.19.04-.26.09-.51.14-.77.09-.51.19-1.02.3-1.53.03-.13.06-.27.09-.4.14-.61.29-1.21.45-1.81.01-.04.02-.08.03-.11.57-2.07,1.28-4.08,2.13-6.02,0-.01.01-.02.02-.03.28-.63.56-1.25.87-1.87.05-.11.11-.22.17-.32.26-.51.52-1.02.8-1.52.13-.24.27-.48.41-.72.21-.36.41-.72.63-1.07.23-.38.48-.76.73-1.14.13-.2.26-.4.39-.6.34-.5.69-.99,1.05-1.48.05-.07.1-.14.15-.21,1.69-2.27,3.61-4.38,5.75-6.32.01-.01.02-.02.04-.03.47-.43.96-.85,1.45-1.26.09-.07.18-.15.27-.22.41-.34.84-.67,1.27-1,.19-.15.38-.29.58-.44.34-.25.68-.49,1.02-.73.31-.22.62-.43.94-.64.25-.16.49-.32.74-.48.44-.28.88-.54,1.33-.8.16-.09.31-.18.47-.27.55-.31,1.11-.61,1.67-.9.05-.03.1-.05.15-.08.04-.02.07-.03.11-.05.61-.31,1.23-.6,1.86-.89.06-.03.13-.06.19-.09.61-.27,1.24-.53,1.86-.77.09-.04.19-.07.28-.11.57-.22,1.14-.42,1.72-.61.16-.05.32-.11.48-.16.48-.16.97-.3,1.46-.44.26-.08.52-.15.79-.22.38-.1.76-.19,1.14-.28.38-.09.76-.18,1.15-.26.26-.06.53-.1.79-.15.5-.1,1.01-.19,1.51-.27.16-.03.33-.05.5-.07.61-.09,1.21-.17,1.82-.23.1-.01.19-.02.29-.03.67-.07,1.35-.12,2.02-.15.07,0,.14,0,.2,0,.69-.03,1.38-.05,2.07-.05.04,0,.08,0,.12,0m0-8c-.08,0-.16,0-.24,0-.76,0-1.55.02-2.33.06h-.24c-.78.05-1.58.11-2.38.19h-.06s-.27.03-.27.03c-.69.07-1.39.16-2.15.27l-.13.02c-.15.02-.3.04-.45.07-.61.1-1.2.2-1.79.32l-.17.03c-.25.05-.5.1-.75.15-.47.1-.92.21-1.37.31-.44.11-.89.21-1.33.33-.26.07-.52.14-.77.22l-.17.05c-.57.16-1.14.33-1.71.52-.15.05-.3.1-.45.15l-.13.05c-.72.24-1.38.48-2.01.72l-.27.11-.07.03c-.74.29-1.48.6-2.19.91l-.19.08c-.75.34-1.45.67-2.14,1.01-.07.03-.14.07-.21.1-.1.05-.19.1-.28.15-.65.33-1.28.67-1.88,1.02-.17.1-.36.2-.54.31-.54.31-1.06.63-1.57.96-.28.18-.57.36-.86.55-.39.25-.76.51-1.12.76-.39.27-.79.56-1.19.85-.24.18-.47.35-.69.52-.53.41-1.02.79-1.48,1.16l-.25.21-.07.06c-.6.5-1.16.98-1.7,1.47l-.03.02-.02.02-.02.02h0c-2.47,2.26-4.74,4.75-6.74,7.43-.05.07-.12.16-.18.24-.47.64-.88,1.21-1.24,1.75-.11.17-.23.35-.35.53l-.11.17-.05.07c-.28.42-.55.85-.82,1.28-.22.36-.43.73-.65,1.1l-.08.14-.12.22c-.12.21-.25.43-.37.64-.28.51-.57,1.06-.93,1.78l-.03.06c-.06.11-.11.22-.17.33-.33.67-.66,1.39-.99,2.12v.03s-.06.1-.06.1c-.99,2.26-1.83,4.65-2.5,7.07l-.03.12c-.19.69-.36,1.38-.54,2.14l-.03.11-.08.35c-.13.61-.25,1.21-.36,1.81-.05.28-.11.58-.16.88-.08.48-.15.95-.21,1.42-.06.45-.12.91-.17,1.37-.04.34-.07.67-.1,1-.06.61-.1,1.23-.14,1.86-.01.21-.02.41-.03.61-.03.7-.05,1.43-.06,2.17,0,.09,0,.18,0,.28,0,.08,0,.15,0,.23,0,.77.02,1.57.06,2.36v.22c.05.78.11,1.59.19,2.4v.04s.03.27.03.27c.07.7.16,1.41.28,2.18l.02.12c.02.14.04.28.06.42.1.62.21,1.22.32,1.82l.03.17c.05.24.09.49.14.73.1.47.21.93.32,1.39.1.44.21.87.32,1.3.07.27.15.53.22.79l.05.17c.16.56.33,1.13.51,1.69.05.16.1.31.15.45l.05.14c.24.71.48,1.37.72,2.01l.1.26.03.07c.29.75.6,1.49.91,2.19l.09.19c.34.75.67,1.46,1.01,2.14.04.08.07.15.11.22,5.21,10.27,13.05,29.93,15.4,43.84-2.23,3.2-5.31,7.24-7.5,10.12-13.78,18.08-32.62,42.81-35.02,75.9-.64,8.86-.96,20.46,2.05,32.9-6.27,17.82-3.88,36.78,6.7,52.43,13,19.21,36.02,30.23,63.15,30.23.45,0,.9,0,1.36,0,1.76.11,3.55.17,5.33.17,12.75,0,26.15-2.77,40.95-8.47l.2-.08.2-.09c13.71-6.14,26.05-17.26,33.86-30.51,8.7-14.75,11.18-30.98,7-45.7l-.02-.08-.02-.08c-3.75-12.27-10.58-22.65-20.29-30.86-5.99-5.07-12.89-9.15-20.6-12.21,13.34-17.52,29.61-39.28,29.3-68.4-.18-17.26-4.12-37.22-11.71-59.32-6.01-17.51-12.69-31.48-15.31-36.72-.07-.15-.14-.29-.22-.43l-.06-.13v-.02s-.02-.02-.02-.02l-.07-.14-.14-.27c-.04-.09-.09-.17-.13-.24-.34-.65-.69-1.3-1.04-1.92-.09-.16-.19-.33-.29-.5-.32-.55-.65-1.09-.98-1.61-.17-.27-.35-.55-.53-.83-.26-.4-.52-.78-.78-1.16-.26-.38-.54-.77-.82-1.16-.19-.26-.37-.49-.55-.73-.37-.48-.75-.97-1.14-1.45l-.23-.27-.07-.08c-.5-.6-.98-1.15-1.45-1.68l-.04-.04-.05-.06c-2.25-2.47-4.74-4.73-7.4-6.72-.08-.06-.17-.13-.27-.2-.66-.49-1.2-.87-1.72-1.23-.18-.12-.37-.25-.57-.37l-.18-.12-.11-.07c-.39-.26-.79-.51-1.19-.76-.38-.24-.79-.47-1.19-.7l-.11-.06-.2-.11c-.2-.12-.41-.24-.61-.35-.54-.3-1.12-.6-1.83-.96-.13-.07-.24-.12-.34-.17-2.98-1.47-6.13-2.67-9.36-3.56l-.1-.03c-.69-.19-1.4-.37-2.17-.54l-.09-.02-.33-.08c-.62-.14-1.23-.26-1.85-.37-.27-.05-.56-.1-.85-.15-.49-.08-.97-.15-1.46-.22-.43-.06-.88-.12-1.33-.17-.36-.04-.7-.07-1.04-.1-.6-.06-1.21-.1-1.82-.14-.22-.01-.43-.02-.63-.03-.69-.03-1.42-.05-2.14-.06-.1,0-.19,0-.29,0h0Z"/>
  </g>
  <g>
    <path d="m274.89,289.34c7.71,27.14-12.09,55.82-36.43,66.72-13.79,5.31-28.38,8.76-43.2,7.77-66.41,1.1-92.41-68.28-35.7-105.97,37.6-22.66,100.97-15.47,115.33,31.48Z"/>
    <g>
      <path class="cls-4" d="m196.17,102.44s21.47,42.31,21.8,73.64c.25,23.9-40.92,51.05-43.32,84.04-1.94,26.73,6.29,26.42,26.18,41.88"/>
      <circle class="cls-1" cx="196.17" cy="102.44" r="45"/>
      <path class="cls-3" d="m195.13,132.83c-13.15.41-25.29-9.35-28.37-22.01-.52-4.57,6.25-5.82,7.37-1.33,5.85,20.95,36.11,20.86,43.73,1.31.76-5.79,8.74-5.12,7.65.76-3.87,13.01-16.94,21.75-30.37,21.26Z"/>
    </g>
  </g>
</svg>